<?xml version="1.0" encoding="utf-8" standalone="no"?>
<!DOCTYPE svg PUBLIC "-//W3C//DTD SVG 1.1//EN"
  "http://www.w3.org/Graphics/SVG/1.1/DTD/svg11.dtd">
<!-- Created with matplotlib (https://matplotlib.org/) -->
<svg height="288pt" version="1.1" viewBox="0 0 432 288" width="432pt" xmlns="http://www.w3.org/2000/svg" xmlns:xlink="http://www.w3.org/1999/xlink">
 <metadata>
  <rdf:RDF xmlns:cc="http://creativecommons.org/ns#" xmlns:dc="http://purl.org/dc/elements/1.1/" xmlns:rdf="http://www.w3.org/1999/02/22-rdf-syntax-ns#">
   <cc:Work>
    <dc:type rdf:resource="http://purl.org/dc/dcmitype/StillImage"/>
    <dc:date>2021-04-14T13:55:26.759585</dc:date>
    <dc:format>image/svg+xml</dc:format>
    <dc:creator>
     <cc:Agent>
      <dc:title>Matplotlib v3.3.2, https://matplotlib.org/</dc:title>
     </cc:Agent>
    </dc:creator>
   </cc:Work>
  </rdf:RDF>
 </metadata>
 <defs>
  <style type="text/css">*{stroke-linecap:butt;stroke-linejoin:round;}</style>
 </defs>
 <g id="figure_1">
  <g id="patch_1">
   <path d="M 0 288 
L 432 288 
L 432 0 
L 0 0 
z
" style="fill:none;"/>
  </g>
  <g id="axes_1">
   <g id="patch_2">
    <path d="M 54 252 
L 388.8 252 
L 388.8 34.56 
L 54 34.56 
z
" style="fill:#ffffff;"/>
   </g>
   <g id="PathCollection_1">
    <defs>
     <path d="M 0 3 
C 0.795609 3 1.55874 2.683901 2.12132 2.12132 
C 2.683901 1.55874 3 0.795609 3 0 
C 3 -0.795609 2.683901 -1.55874 2.12132 -2.12132 
C 1.55874 -2.683901 0.795609 -3 0 -3 
C -0.795609 -3 -1.55874 -2.683901 -2.12132 -2.12132 
C -2.683901 -1.55874 -3 -0.795609 -3 0 
C -3 0.795609 -2.683901 1.55874 -2.12132 2.12132 
C -1.55874 2.683901 -0.795609 3 0 3 
z
" id="m68e065bd29" style="stroke:#000000;"/>
    </defs>
    <g clip-path="url(#p1e8963c585)">
     <use style="fill:#ffffff;stroke:#000000;" x="277.480274" xlink:href="#m68e065bd29" y="67.086238"/>
     <use style="fill:#ffffff;stroke:#000000;" x="241.782217" xlink:href="#m68e065bd29" y="86.820844"/>
     <use style="fill:#ffffff;stroke:#000000;" x="205.664203" xlink:href="#m68e065bd29" y="101.584441"/>
     <use style="fill:#ffffff;stroke:#000000;" x="318.718663" xlink:href="#m68e065bd29" y="62.651606"/>
     <use style="fill:#ffffff;stroke:#000000;" x="228.005621" xlink:href="#m68e065bd29" y="104.600384"/>
     <use style="fill:#ffffff;stroke:#000000;" x="259.582369" xlink:href="#m68e065bd29" y="96.897645"/>
     <use style="fill:#ffffff;stroke:#000000;" x="277.011157" xlink:href="#m68e065bd29" y="60.725025"/>
     <use style="fill:#ffffff;stroke:#000000;" x="256.861611" xlink:href="#m68e065bd29" y="118.998181"/>
     <use style="fill:#ffffff;stroke:#000000;" x="271.735429" xlink:href="#m68e065bd29" y="78.96326"/>
     <use style="fill:#ffffff;stroke:#000000;" x="243.227847" xlink:href="#m68e065bd29" y="85.100813"/>
     <use style="fill:#ffffff;stroke:#000000;" x="240.005125" xlink:href="#m68e065bd29" y="104.498564"/>
     <use style="fill:#ffffff;stroke:#000000;" x="235.242151" xlink:href="#m68e065bd29" y="94.218797"/>
     <use style="fill:#ffffff;stroke:#000000;" x="152.494379" xlink:href="#m68e065bd29" y="130.825486"/>
     <use style="fill:#ffffff;stroke:#000000;" x="165.195172" xlink:href="#m68e065bd29" y="120.34526"/>
     <use style="fill:#ffffff;stroke:#000000;" x="196.633406" xlink:href="#m68e065bd29" y="89.281773"/>
     <use style="fill:#ffffff;stroke:#000000;" x="320.178942" xlink:href="#m68e065bd29" y="75.009625"/>
     <use style="fill:#ffffff;stroke:#000000;" x="266.711712" xlink:href="#m68e065bd29" y="67.65481"/>
     <use style="fill:#ffffff;stroke:#000000;" x="295.426352" xlink:href="#m68e065bd29" y="79.640943"/>
     <use style="fill:#ffffff;stroke:#000000;" x="181.293204" xlink:href="#m68e065bd29" y="108.300163"/>
     <use style="fill:#ffffff;stroke:#000000;" x="253.248484" xlink:href="#m68e065bd29" y="70.471456"/>
     <use style="fill:#ffffff;stroke:#000000;" x="240.204375" xlink:href="#m68e065bd29" y="86.271904"/>
     <use style="fill:#ffffff;stroke:#000000;" x="244.640959" xlink:href="#m68e065bd29" y="97.219669"/>
     <use style="fill:#ffffff;stroke:#000000;" x="221.281639" xlink:href="#m68e065bd29" y="102.285936"/>
     <use style="fill:#ffffff;stroke:#000000;" x="218.198062" xlink:href="#m68e065bd29" y="79.023089"/>
     <use style="fill:#ffffff;stroke:#000000;" x="188.454229" xlink:href="#m68e065bd29" y="108.369635"/>
     <use style="fill:#ffffff;stroke:#000000;" x="190.595861" xlink:href="#m68e065bd29" y="101.038425"/>
     <use style="fill:#ffffff;stroke:#000000;" x="234.290157" xlink:href="#m68e065bd29" y="89.568227"/>
     <use style="fill:#ffffff;stroke:#000000;" x="236.71691" xlink:href="#m68e065bd29" y="104.443751"/>
     <use style="fill:#ffffff;stroke:#000000;" x="220.64455" xlink:href="#m68e065bd29" y="71.449484"/>
     <use style="fill:#ffffff;stroke:#000000;" x="247.741477" xlink:href="#m68e065bd29" y="107.816448"/>
     <use style="fill:#ffffff;stroke:#000000;" x="280.185297" xlink:href="#m68e065bd29" y="84.165649"/>
     <use style="fill:#ffffff;stroke:#000000;" x="244.52862" xlink:href="#m68e065bd29" y="90.473234"/>
     <use style="fill:#ffffff;stroke:#000000;" x="309.328219" xlink:href="#m68e065bd29" y="79.391192"/>
     <use style="fill:#ffffff;stroke:#000000;" x="227.718499" xlink:href="#m68e065bd29" y="95.194392"/>
     <use style="fill:#ffffff;stroke:#000000;" x="248.511378" xlink:href="#m68e065bd29" y="84.672943"/>
     <use style="fill:#ffffff;stroke:#000000;" x="266.451903" xlink:href="#m68e065bd29" y="97.684252"/>
     <use style="fill:#ffffff;stroke:#000000;" x="189.121672" xlink:href="#m68e065bd29" y="120.714618"/>
     <use style="fill:#ffffff;stroke:#000000;" x="167.588261" xlink:href="#m68e065bd29" y="98.067792"/>
     <use style="fill:#ffffff;stroke:#000000;" x="194.123272" xlink:href="#m68e065bd29" y="126.741436"/>
     <use style="fill:#ffffff;stroke:#000000;" x="226.935372" xlink:href="#m68e065bd29" y="99.696057"/>
     <use style="fill:#ffffff;stroke:#000000;" x="335.402589" xlink:href="#m68e065bd29" y="61.160775"/>
     <use style="fill:#ffffff;stroke:#000000;" x="231.38823" xlink:href="#m68e065bd29" y="100.666331"/>
     <use style="fill:#ffffff;stroke:#000000;" x="234.461125" xlink:href="#m68e065bd29" y="93.592941"/>
     <use style="fill:#ffffff;stroke:#000000;" x="280.838814" xlink:href="#m68e065bd29" y="96.79596"/>
     <use style="fill:#ffffff;stroke:#000000;" x="294.586387" xlink:href="#m68e065bd29" y="74.688587"/>
     <use style="fill:#ffffff;stroke:#000000;" x="239.239189" xlink:href="#m68e065bd29" y="96.272485"/>
     <use style="fill:#ffffff;stroke:#000000;" x="271.309037" xlink:href="#m68e065bd29" y="101.437064"/>
     <use style="fill:#ffffff;stroke:#000000;" x="294.199426" xlink:href="#m68e065bd29" y="65.548882"/>
     <use style="fill:#ffffff;stroke:#000000;" x="269.267495" xlink:href="#m68e065bd29" y="88.422527"/>
     <use style="fill:#ffffff;stroke:#000000;" x="222.99986" xlink:href="#m68e065bd29" y="85.432206"/>
     <use style="fill:#ffffff;stroke:#000000;" x="175.028899" xlink:href="#m68e065bd29" y="129.888239"/>
     <use style="fill:#ffffff;stroke:#000000;" x="286.093722" xlink:href="#m68e065bd29" y="94.194699"/>
     <use style="fill:#ffffff;stroke:#000000;" x="230.675623" xlink:href="#m68e065bd29" y="74.726012"/>
     <use style="fill:#ffffff;stroke:#000000;" x="168.221827" xlink:href="#m68e065bd29" y="116.766575"/>
     <use style="fill:#ffffff;stroke:#000000;" x="276.191042" xlink:href="#m68e065bd29" y="77.973074"/>
     <use style="fill:#ffffff;stroke:#000000;" x="239.847083" xlink:href="#m68e065bd29" y="83.974601"/>
     <use style="fill:#ffffff;stroke:#000000;" x="263.1591" xlink:href="#m68e065bd29" y="99.804923"/>
     <use style="fill:#ffffff;stroke:#000000;" x="309.209671" xlink:href="#m68e065bd29" y="51.007184"/>
     <use style="fill:#ffffff;stroke:#000000;" x="289.185754" xlink:href="#m68e065bd29" y="83.892178"/>
     <use style="fill:#ffffff;stroke:#000000;" x="256.457395" xlink:href="#m68e065bd29" y="80.200881"/>
     <use style="fill:#ffffff;stroke:#000000;" x="309.558029" xlink:href="#m68e065bd29" y="53.41726"/>
     <use style="fill:#ffffff;stroke:#000000;" x="252.956531" xlink:href="#m68e065bd29" y="95.84111"/>
     <use style="fill:#ffffff;stroke:#000000;" x="228.489128" xlink:href="#m68e065bd29" y="102.092031"/>
     <use style="fill:#ffffff;stroke:#000000;" x="304.918023" xlink:href="#m68e065bd29" y="54.166038"/>
     <use style="fill:#ffffff;stroke:#000000;" x="216.944194" xlink:href="#m68e065bd29" y="112.028093"/>
     <use style="fill:#ffffff;stroke:#000000;" x="153.708091" xlink:href="#m68e065bd29" y="122.043982"/>
     <use style="fill:#ffffff;stroke:#000000;" x="200.473751" xlink:href="#m68e065bd29" y="91.989521"/>
     <use style="fill:#ffffff;stroke:#000000;" x="324.951466" xlink:href="#m68e065bd29" y="44.443636"/>
     <use style="fill:#ffffff;stroke:#000000;" x="300.33031" xlink:href="#m68e065bd29" y="48.631417"/>
     <use style="fill:#ffffff;stroke:#000000;" x="198.496599" xlink:href="#m68e065bd29" y="101.180864"/>
     <use style="fill:#ffffff;stroke:#000000;" x="303.832081" xlink:href="#m68e065bd29" y="70.493958"/>
     <use style="fill:#ffffff;stroke:#000000;" x="175.843819" xlink:href="#m68e065bd29" y="122.676294"/>
     <use style="fill:#ffffff;stroke:#000000;" x="319.995466" xlink:href="#m68e065bd29" y="92.361891"/>
     <use style="fill:#ffffff;stroke:#000000;" x="240.644527" xlink:href="#m68e065bd29" y="104.727415"/>
     <use style="fill:#ffffff;stroke:#000000;" x="210.604196" xlink:href="#m68e065bd29" y="98.642703"/>
     <use style="fill:#ffffff;stroke:#000000;" x="276.773821" xlink:href="#m68e065bd29" y="100.380859"/>
     <use style="fill:#ffffff;stroke:#000000;" x="309.851379" xlink:href="#m68e065bd29" y="67.783298"/>
     <use style="fill:#ffffff;stroke:#000000;" x="261.503292" xlink:href="#m68e065bd29" y="60.475678"/>
     <use style="fill:#ffffff;stroke:#000000;" x="273.744472" xlink:href="#m68e065bd29" y="94.763775"/>
     <use style="fill:#ffffff;stroke:#000000;" x="228.464628" xlink:href="#m68e065bd29" y="137.296484"/>
     <use style="fill:#ffffff;stroke:#000000;" x="255.479211" xlink:href="#m68e065bd29" y="92.947908"/>
     <use style="fill:#ffffff;stroke:#000000;" x="298.470434" xlink:href="#m68e065bd29" y="54.671919"/>
     <use style="fill:#ffffff;stroke:#000000;" x="273.563017" xlink:href="#m68e065bd29" y="96.840275"/>
     <use style="fill:#ffffff;stroke:#000000;" x="206.501317" xlink:href="#m68e065bd29" y="127.905028"/>
     <use style="fill:#ffffff;stroke:#000000;" x="219.41952" xlink:href="#m68e065bd29" y="112.83214"/>
     <use style="fill:#ffffff;stroke:#000000;" x="269.814763" xlink:href="#m68e065bd29" y="107.869588"/>
     <use style="fill:#ffffff;stroke:#000000;" x="262.711927" xlink:href="#m68e065bd29" y="106.910425"/>
     <use style="fill:#ffffff;stroke:#000000;" x="250.772632" xlink:href="#m68e065bd29" y="100.758992"/>
     <use style="fill:#ffffff;stroke:#000000;" x="205.157507" xlink:href="#m68e065bd29" y="87.834629"/>
     <use style="fill:#ffffff;stroke:#000000;" x="272.549628" xlink:href="#m68e065bd29" y="72.22982"/>
     <use style="fill:#ffffff;stroke:#000000;" x="215.891249" xlink:href="#m68e065bd29" y="86.368804"/>
     <use style="fill:#ffffff;stroke:#000000;" x="314.683712" xlink:href="#m68e065bd29" y="57.214321"/>
     <use style="fill:#ffffff;stroke:#000000;" x="244.189241" xlink:href="#m68e065bd29" y="101.284579"/>
     <use style="fill:#ffffff;stroke:#000000;" x="289.333909" xlink:href="#m68e065bd29" y="83.479038"/>
     <use style="fill:#ffffff;stroke:#000000;" x="260.61572" xlink:href="#m68e065bd29" y="80.273042"/>
     <use style="fill:#ffffff;stroke:#000000;" x="228.850197" xlink:href="#m68e065bd29" y="79.748089"/>
     <use style="fill:#ffffff;stroke:#000000;" x="269.807226" xlink:href="#m68e065bd29" y="73.251047"/>
     <use style="fill:#ffffff;stroke:#000000;" x="373.581818" xlink:href="#m68e065bd29" y="58.760412"/>
     <use style="fill:#ffffff;stroke:#000000;" x="195.908214" xlink:href="#m68e065bd29" y="111.38769"/>
     <use style="fill:#ffffff;stroke:#000000;" x="254.156291" xlink:href="#m68e065bd29" y="97.704385"/>
    </g>
   </g>
   <g id="PathCollection_2">
    <defs>
     <path d="M 0 3 
C 0.795609 3 1.55874 2.683901 2.12132 2.12132 
C 2.683901 1.55874 3 0.795609 3 0 
C 3 -0.795609 2.683901 -1.55874 2.12132 -2.12132 
C 1.55874 -2.683901 0.795609 -3 0 -3 
C -0.795609 -3 -1.55874 -2.683901 -2.12132 -2.12132 
C -2.683901 -1.55874 -3 -0.795609 -3 0 
C -3 0.795609 -2.683901 1.55874 -2.12132 2.12132 
C -1.55874 2.683901 -0.795609 3 0 3 
z
" id="ma54e372664" style="stroke:#000000;"/>
    </defs>
    <g clip-path="url(#p1e8963c585)">
     <use style="stroke:#000000;" x="193.818976" xlink:href="#ma54e372664" y="203.537544"/>
     <use style="stroke:#000000;" x="228.357078" xlink:href="#ma54e372664" y="242.116364"/>
     <use style="stroke:#000000;" x="104.254733" xlink:href="#ma54e372664" y="198.843652"/>
     <use style="stroke:#000000;" x="170.276228" xlink:href="#ma54e372664" y="197.580748"/>
     <use style="stroke:#000000;" x="108.308268" xlink:href="#ma54e372664" y="164.996723"/>
     <use style="stroke:#000000;" x="245.024041" xlink:href="#ma54e372664" y="237.509062"/>
     <use style="stroke:#000000;" x="151.542151" xlink:href="#ma54e372664" y="211.903999"/>
     <use style="stroke:#000000;" x="214.924044" xlink:href="#ma54e372664" y="201.549079"/>
     <use style="stroke:#000000;" x="169.224733" xlink:href="#ma54e372664" y="219.432327"/>
     <use style="stroke:#000000;" x="101.499233" xlink:href="#ma54e372664" y="198.897234"/>
     <use style="stroke:#000000;" x="211.660546" xlink:href="#ma54e372664" y="221.827355"/>
     <use style="stroke:#000000;" x="92.562385" xlink:href="#ma54e372664" y="192.091215"/>
     <use style="stroke:#000000;" x="147.984719" xlink:href="#ma54e372664" y="214.866914"/>
     <use style="stroke:#000000;" x="98.528344" xlink:href="#ma54e372664" y="180.217633"/>
     <use style="stroke:#000000;" x="166.404248" xlink:href="#ma54e372664" y="197.102409"/>
     <use style="stroke:#000000;" x="113.814588" xlink:href="#ma54e372664" y="215.502682"/>
     <use style="stroke:#000000;" x="252.965592" xlink:href="#ma54e372664" y="226.335665"/>
     <use style="stroke:#000000;" x="69.218182" xlink:href="#ma54e372664" y="164.920064"/>
     <use style="stroke:#000000;" x="147.911457" xlink:href="#ma54e372664" y="200.077099"/>
     <use style="stroke:#000000;" x="298.278532" xlink:href="#ma54e372664" y="241.01583"/>
     <use style="stroke:#000000;" x="159.047843" xlink:href="#ma54e372664" y="203.269321"/>
     <use style="stroke:#000000;" x="203.767708" xlink:href="#ma54e372664" y="198.878373"/>
     <use style="stroke:#000000;" x="151.786382" xlink:href="#ma54e372664" y="185.976791"/>
     <use style="stroke:#000000;" x="123.428358" xlink:href="#ma54e372664" y="202.712455"/>
     <use style="stroke:#000000;" x="106.542426" xlink:href="#ma54e372664" y="209.568102"/>
     <use style="stroke:#000000;" x="186.465451" xlink:href="#ma54e372664" y="196.126419"/>
     <use style="stroke:#000000;" x="187.72657" xlink:href="#ma54e372664" y="192.098924"/>
     <use style="stroke:#000000;" x="94.875422" xlink:href="#ma54e372664" y="193.557071"/>
     <use style="stroke:#000000;" x="121.647329" xlink:href="#ma54e372664" y="199.069321"/>
     <use style="stroke:#000000;" x="140.620394" xlink:href="#ma54e372664" y="201.568314"/>
     <use style="stroke:#000000;" x="134.728356" xlink:href="#ma54e372664" y="181.790822"/>
     <use style="stroke:#000000;" x="166.112135" xlink:href="#ma54e372664" y="205.794755"/>
     <use style="stroke:#000000;" x="164.026946" xlink:href="#ma54e372664" y="205.187993"/>
     <use style="stroke:#000000;" x="124.211352" xlink:href="#ma54e372664" y="181.974035"/>
     <use style="stroke:#000000;" x="243.897323" xlink:href="#ma54e372664" y="209.387708"/>
     <use style="stroke:#000000;" x="125.569896" xlink:href="#ma54e372664" y="179.346992"/>
     <use style="stroke:#000000;" x="280.698867" xlink:href="#ma54e372664" y="234.189038"/>
     <use style="stroke:#000000;" x="268.666115" xlink:href="#ma54e372664" y="239.899776"/>
     <use style="stroke:#000000;" x="142.764646" xlink:href="#ma54e372664" y="216.978936"/>
     <use style="stroke:#000000;" x="198.508985" xlink:href="#ma54e372664" y="213.078674"/>
     <use style="stroke:#000000;" x="89.018082" xlink:href="#ma54e372664" y="190.341753"/>
     <use style="stroke:#000000;" x="156.961608" xlink:href="#ma54e372664" y="207.807631"/>
     <use style="stroke:#000000;" x="165.48905" xlink:href="#ma54e372664" y="219.800792"/>
     <use style="stroke:#000000;" x="204.9582" xlink:href="#ma54e372664" y="211.702792"/>
     <use style="stroke:#000000;" x="159.03146" xlink:href="#ma54e372664" y="198.153404"/>
     <use style="stroke:#000000;" x="111.743904" xlink:href="#ma54e372664" y="183.05942"/>
     <use style="stroke:#000000;" x="130.881607" xlink:href="#ma54e372664" y="219.841021"/>
     <use style="stroke:#000000;" x="168.781791" xlink:href="#ma54e372664" y="218.844677"/>
     <use style="stroke:#000000;" x="176.90137" xlink:href="#ma54e372664" y="175.714582"/>
     <use style="stroke:#000000;" x="207.305671" xlink:href="#ma54e372664" y="235.355518"/>
    </g>
   </g>
   <g id="matplotlib.axis_1">
    <g id="xtick_1">
     <g id="line2d_1">
      <defs>
       <path d="M 0 0 
L 0 3.5 
" id="meaf8e7519c" style="stroke:#000000;stroke-width:0.8;"/>
      </defs>
      <g>
       <use style="stroke:#000000;stroke-width:0.8;" x="84.754681" xlink:href="#meaf8e7519c" y="252"/>
      </g>
     </g>
     <g id="text_1">
      <!-- −6 -->
      <g transform="translate(77.383587 266.598437)scale(0.1 -0.1)">
       <defs>
        <path d="M 10.59375 35.5 
L 73.1875 35.5 
L 73.1875 27.203125 
L 10.59375 27.203125 
z
" id="DejaVuSans-8722"/>
        <path d="M 33.015625 40.375 
Q 26.375 40.375 22.484375 35.828125 
Q 18.609375 31.296875 18.609375 23.390625 
Q 18.609375 15.53125 22.484375 10.953125 
Q 26.375 6.390625 33.015625 6.390625 
Q 39.65625 6.390625 43.53125 10.953125 
Q 47.40625 15.53125 47.40625 23.390625 
Q 47.40625 31.296875 43.53125 35.828125 
Q 39.65625 40.375 33.015625 40.375 
z
M 52.59375 71.296875 
L 52.59375 62.3125 
Q 48.875 64.0625 45.09375 64.984375 
Q 41.3125 65.921875 37.59375 65.921875 
Q 27.828125 65.921875 22.671875 59.328125 
Q 17.53125 52.734375 16.796875 39.40625 
Q 19.671875 43.65625 24.015625 45.921875 
Q 28.375 48.1875 33.59375 48.1875 
Q 44.578125 48.1875 50.953125 41.515625 
Q 57.328125 34.859375 57.328125 23.390625 
Q 57.328125 12.15625 50.6875 5.359375 
Q 44.046875 -1.421875 33.015625 -1.421875 
Q 20.359375 -1.421875 13.671875 8.265625 
Q 6.984375 17.96875 6.984375 36.375 
Q 6.984375 53.65625 15.1875 63.9375 
Q 23.390625 74.21875 37.203125 74.21875 
Q 40.921875 74.21875 44.703125 73.484375 
Q 48.484375 72.75 52.59375 71.296875 
z
" id="DejaVuSans-54"/>
       </defs>
       <use xlink:href="#DejaVuSans-8722"/>
       <use x="83.789062" xlink:href="#DejaVuSans-54"/>
      </g>
     </g>
    </g>
    <g id="xtick_2">
     <g id="line2d_2">
      <g>
       <use style="stroke:#000000;stroke-width:0.8;" x="151.090042" xlink:href="#meaf8e7519c" y="252"/>
      </g>
     </g>
     <g id="text_2">
      <!-- −4 -->
      <g transform="translate(143.718948 266.598437)scale(0.1 -0.1)">
       <defs>
        <path d="M 37.796875 64.3125 
L 12.890625 25.390625 
L 37.796875 25.390625 
z
M 35.203125 72.90625 
L 47.609375 72.90625 
L 47.609375 25.390625 
L 58.015625 25.390625 
L 58.015625 17.1875 
L 47.609375 17.1875 
L 47.609375 0 
L 37.796875 0 
L 37.796875 17.1875 
L 4.890625 17.1875 
L 4.890625 26.703125 
z
" id="DejaVuSans-52"/>
       </defs>
       <use xlink:href="#DejaVuSans-8722"/>
       <use x="83.789062" xlink:href="#DejaVuSans-52"/>
      </g>
     </g>
    </g>
    <g id="xtick_3">
     <g id="line2d_3">
      <g>
       <use style="stroke:#000000;stroke-width:0.8;" x="217.425403" xlink:href="#meaf8e7519c" y="252"/>
      </g>
     </g>
     <g id="text_3">
      <!-- −2 -->
      <g transform="translate(210.05431 266.598437)scale(0.1 -0.1)">
       <defs>
        <path d="M 19.1875 8.296875 
L 53.609375 8.296875 
L 53.609375 0 
L 7.328125 0 
L 7.328125 8.296875 
Q 12.9375 14.109375 22.625 23.890625 
Q 32.328125 33.6875 34.8125 36.53125 
Q 39.546875 41.84375 41.421875 45.53125 
Q 43.3125 49.21875 43.3125 52.78125 
Q 43.3125 58.59375 39.234375 62.25 
Q 35.15625 65.921875 28.609375 65.921875 
Q 23.96875 65.921875 18.8125 64.3125 
Q 13.671875 62.703125 7.8125 59.421875 
L 7.8125 69.390625 
Q 13.765625 71.78125 18.9375 73 
Q 24.125 74.21875 28.421875 74.21875 
Q 39.75 74.21875 46.484375 68.546875 
Q 53.21875 62.890625 53.21875 53.421875 
Q 53.21875 48.921875 51.53125 44.890625 
Q 49.859375 40.875 45.40625 35.40625 
Q 44.1875 33.984375 37.640625 27.21875 
Q 31.109375 20.453125 19.1875 8.296875 
z
" id="DejaVuSans-50"/>
       </defs>
       <use xlink:href="#DejaVuSans-8722"/>
       <use x="83.789062" xlink:href="#DejaVuSans-50"/>
      </g>
     </g>
    </g>
    <g id="xtick_4">
     <g id="line2d_4">
      <g>
       <use style="stroke:#000000;stroke-width:0.8;" x="283.760765" xlink:href="#meaf8e7519c" y="252"/>
      </g>
     </g>
     <g id="text_4">
      <!-- 0 -->
      <g transform="translate(280.579515 266.598437)scale(0.1 -0.1)">
       <defs>
        <path d="M 31.78125 66.40625 
Q 24.171875 66.40625 20.328125 58.90625 
Q 16.5 51.421875 16.5 36.375 
Q 16.5 21.390625 20.328125 13.890625 
Q 24.171875 6.390625 31.78125 6.390625 
Q 39.453125 6.390625 43.28125 13.890625 
Q 47.125 21.390625 47.125 36.375 
Q 47.125 51.421875 43.28125 58.90625 
Q 39.453125 66.40625 31.78125 66.40625 
z
M 31.78125 74.21875 
Q 44.046875 74.21875 50.515625 64.515625 
Q 56.984375 54.828125 56.984375 36.375 
Q 56.984375 17.96875 50.515625 8.265625 
Q 44.046875 -1.421875 31.78125 -1.421875 
Q 19.53125 -1.421875 13.0625 8.265625 
Q 6.59375 17.96875 6.59375 36.375 
Q 6.59375 54.828125 13.0625 64.515625 
Q 19.53125 74.21875 31.78125 74.21875 
z
" id="DejaVuSans-48"/>
       </defs>
       <use xlink:href="#DejaVuSans-48"/>
      </g>
     </g>
    </g>
    <g id="xtick_5">
     <g id="line2d_5">
      <g>
       <use style="stroke:#000000;stroke-width:0.8;" x="350.096126" xlink:href="#meaf8e7519c" y="252"/>
      </g>
     </g>
     <g id="text_5">
      <!-- 2 -->
      <g transform="translate(346.914876 266.598437)scale(0.1 -0.1)">
       <use xlink:href="#DejaVuSans-50"/>
      </g>
     </g>
    </g>
   </g>
   <g id="matplotlib.axis_2">
    <g id="ytick_1">
     <g id="line2d_6">
      <defs>
       <path d="M 0 0 
L -3.5 0 
" id="mc9700ba3ac" style="stroke:#000000;stroke-width:0.8;"/>
      </defs>
      <g>
       <use style="stroke:#000000;stroke-width:0.8;" x="54" xlink:href="#mc9700ba3ac" y="244.210659"/>
      </g>
     </g>
     <g id="text_6">
      <!-- −6 -->
      <g transform="translate(32.257812 248.009878)scale(0.1 -0.1)">
       <use xlink:href="#DejaVuSans-8722"/>
       <use x="83.789062" xlink:href="#DejaVuSans-54"/>
      </g>
     </g>
    </g>
    <g id="ytick_2">
     <g id="line2d_7">
      <g>
       <use style="stroke:#000000;stroke-width:0.8;" x="54" xlink:href="#mc9700ba3ac" y="199.722227"/>
      </g>
     </g>
     <g id="text_7">
      <!-- −4 -->
      <g transform="translate(32.257812 203.521445)scale(0.1 -0.1)">
       <use xlink:href="#DejaVuSans-8722"/>
       <use x="83.789062" xlink:href="#DejaVuSans-52"/>
      </g>
     </g>
    </g>
    <g id="ytick_3">
     <g id="line2d_8">
      <g>
       <use style="stroke:#000000;stroke-width:0.8;" x="54" xlink:href="#mc9700ba3ac" y="155.233794"/>
      </g>
     </g>
     <g id="text_8">
      <!-- −2 -->
      <g transform="translate(32.257812 159.033013)scale(0.1 -0.1)">
       <use xlink:href="#DejaVuSans-8722"/>
       <use x="83.789062" xlink:href="#DejaVuSans-50"/>
      </g>
     </g>
    </g>
    <g id="ytick_4">
     <g id="line2d_9">
      <g>
       <use style="stroke:#000000;stroke-width:0.8;" x="54" xlink:href="#mc9700ba3ac" y="110.745362"/>
      </g>
     </g>
     <g id="text_9">
      <!-- 0 -->
      <g transform="translate(40.6375 114.544581)scale(0.1 -0.1)">
       <use xlink:href="#DejaVuSans-48"/>
      </g>
     </g>
    </g>
    <g id="ytick_5">
     <g id="line2d_10">
      <g>
       <use style="stroke:#000000;stroke-width:0.8;" x="54" xlink:href="#mc9700ba3ac" y="66.256929"/>
      </g>
     </g>
     <g id="text_10">
      <!-- 2 -->
      <g transform="translate(40.6375 70.056148)scale(0.1 -0.1)">
       <use xlink:href="#DejaVuSans-50"/>
      </g>
     </g>
    </g>
   </g>
   <g id="patch_3">
    <path d="M 54 252 
L 54 34.56 
" style="fill:none;stroke:#000000;stroke-linecap:square;stroke-linejoin:miter;stroke-width:0.8;"/>
   </g>
   <g id="patch_4">
    <path d="M 388.8 252 
L 388.8 34.56 
" style="fill:none;stroke:#000000;stroke-linecap:square;stroke-linejoin:miter;stroke-width:0.8;"/>
   </g>
   <g id="patch_5">
    <path d="M 54 252 
L 388.8 252 
" style="fill:none;stroke:#000000;stroke-linecap:square;stroke-linejoin:miter;stroke-width:0.8;"/>
   </g>
   <g id="patch_6">
    <path d="M 54 34.56 
L 388.8 34.56 
" style="fill:none;stroke:#000000;stroke-linecap:square;stroke-linejoin:miter;stroke-width:0.8;"/>
   </g>
  </g>
 </g>
 <defs>
  <clipPath id="p1e8963c585">
   <rect height="217.44" width="334.8" x="54" y="34.56"/>
  </clipPath>
 </defs>
</svg>
