<?xml version="1.0" encoding="utf-8" standalone="no"?>
<!DOCTYPE svg PUBLIC "-//W3C//DTD SVG 1.1//EN"
  "http://www.w3.org/Graphics/SVG/1.1/DTD/svg11.dtd">
<!-- Created with matplotlib (https://matplotlib.org/) -->
<svg height="288pt" version="1.1" viewBox="0 0 432 288" width="432pt" xmlns="http://www.w3.org/2000/svg" xmlns:xlink="http://www.w3.org/1999/xlink">
 <metadata>
  <rdf:RDF xmlns:cc="http://creativecommons.org/ns#" xmlns:dc="http://purl.org/dc/elements/1.1/" xmlns:rdf="http://www.w3.org/1999/02/22-rdf-syntax-ns#">
   <cc:Work>
    <dc:type rdf:resource="http://purl.org/dc/dcmitype/StillImage"/>
    <dc:date>2021-04-24T20:15:03.885656</dc:date>
    <dc:format>image/svg+xml</dc:format>
    <dc:creator>
     <cc:Agent>
      <dc:title>Matplotlib v3.3.2, https://matplotlib.org/</dc:title>
     </cc:Agent>
    </dc:creator>
   </cc:Work>
  </rdf:RDF>
 </metadata>
 <defs>
  <style type="text/css">*{stroke-linecap:butt;stroke-linejoin:round;}</style>
 </defs>
 <g id="figure_1">
  <g id="patch_1">
   <path d="M 0 288 
L 432 288 
L 432 0 
L 0 0 
z
" style="fill:none;"/>
  </g>
  <g id="axes_1">
   <g id="patch_2">
    <path d="M 54 252 
L 388.8 252 
L 388.8 34.56 
L 54 34.56 
z
" style="fill:#ffffff;"/>
   </g>
   <g id="PathCollection_1">
    <defs>
     <path d="M 0 3 
C 0.795609 3 1.55874 2.683901 2.12132 2.12132 
C 2.683901 1.55874 3 0.795609 3 0 
C 3 -0.795609 2.683901 -1.55874 2.12132 -2.12132 
C 1.55874 -2.683901 0.795609 -3 0 -3 
C -0.795609 -3 -1.55874 -2.683901 -2.12132 -2.12132 
C -2.683901 -1.55874 -3 -0.795609 -3 0 
C -3 0.795609 -2.683901 1.55874 -2.12132 2.12132 
C -1.55874 2.683901 -0.795609 3 0 3 
z
" id="m6152d23a56" style="stroke:#000000;"/>
    </defs>
    <g clip-path="url(#p90728e9c17)">
     <use style="fill:#ffffff;stroke:#000000;" x="251.525057" xlink:href="#m6152d23a56" y="108.819778"/>
     <use style="fill:#ffffff;stroke:#000000;" x="255.241731" xlink:href="#m6152d23a56" y="90.648353"/>
     <use style="fill:#ffffff;stroke:#000000;" x="274.975111" xlink:href="#m6152d23a56" y="78.034131"/>
     <use style="fill:#ffffff;stroke:#000000;" x="231.569707" xlink:href="#m6152d23a56" y="111.060434"/>
     <use style="fill:#ffffff;stroke:#000000;" x="256.578074" xlink:href="#m6152d23a56" y="110.023023"/>
     <use style="fill:#ffffff;stroke:#000000;" x="228.996044" xlink:href="#m6152d23a56" y="126.851031"/>
     <use style="fill:#ffffff;stroke:#000000;" x="293.239561" xlink:href="#m6152d23a56" y="103.87024"/>
     <use style="fill:#ffffff;stroke:#000000;" x="331.315222" xlink:href="#m6152d23a56" y="72.867182"/>
     <use style="fill:#ffffff;stroke:#000000;" x="233.653294" xlink:href="#m6152d23a56" y="97.904207"/>
     <use style="fill:#ffffff;stroke:#000000;" x="310.10719" xlink:href="#m6152d23a56" y="84.599926"/>
     <use style="fill:#ffffff;stroke:#000000;" x="286.424744" xlink:href="#m6152d23a56" y="98.142691"/>
     <use style="fill:#ffffff;stroke:#000000;" x="277.110803" xlink:href="#m6152d23a56" y="95.524621"/>
     <use style="fill:#ffffff;stroke:#000000;" x="245.840953" xlink:href="#m6152d23a56" y="112.917217"/>
     <use style="fill:#ffffff;stroke:#000000;" x="201.7089" xlink:href="#m6152d23a56" y="111.19936"/>
     <use style="fill:#ffffff;stroke:#000000;" x="297.191313" xlink:href="#m6152d23a56" y="112.631502"/>
     <use style="fill:#ffffff;stroke:#000000;" x="250.760435" xlink:href="#m6152d23a56" y="122.417391"/>
     <use style="fill:#ffffff;stroke:#000000;" x="223.336628" xlink:href="#m6152d23a56" y="107.24985"/>
     <use style="fill:#ffffff;stroke:#000000;" x="346.598866" xlink:href="#m6152d23a56" y="64.100305"/>
     <use style="fill:#ffffff;stroke:#000000;" x="321.89691" xlink:href="#m6152d23a56" y="62.633596"/>
     <use style="fill:#ffffff;stroke:#000000;" x="294.335499" xlink:href="#m6152d23a56" y="95.069145"/>
     <use style="fill:#ffffff;stroke:#000000;" x="212.388863" xlink:href="#m6152d23a56" y="91.442154"/>
     <use style="fill:#ffffff;stroke:#000000;" x="261.112006" xlink:href="#m6152d23a56" y="99.806252"/>
     <use style="fill:#ffffff;stroke:#000000;" x="184.471798" xlink:href="#m6152d23a56" y="103.975419"/>
     <use style="fill:#ffffff;stroke:#000000;" x="236.350224" xlink:href="#m6152d23a56" y="117.88689"/>
     <use style="fill:#ffffff;stroke:#000000;" x="252.770433" xlink:href="#m6152d23a56" y="121.717151"/>
     <use style="fill:#ffffff;stroke:#000000;" x="298.613491" xlink:href="#m6152d23a56" y="82.836317"/>
     <use style="fill:#ffffff;stroke:#000000;" x="320.137368" xlink:href="#m6152d23a56" y="102.50097"/>
     <use style="fill:#ffffff;stroke:#000000;" x="278.799434" xlink:href="#m6152d23a56" y="95.424197"/>
     <use style="fill:#ffffff;stroke:#000000;" x="210.008185" xlink:href="#m6152d23a56" y="116.435254"/>
     <use style="fill:#ffffff;stroke:#000000;" x="244.658304" xlink:href="#m6152d23a56" y="100.644758"/>
     <use style="fill:#ffffff;stroke:#000000;" x="270.886998" xlink:href="#m6152d23a56" y="86.53802"/>
     <use style="fill:#ffffff;stroke:#000000;" x="208.35724" xlink:href="#m6152d23a56" y="131.818248"/>
     <use style="fill:#ffffff;stroke:#000000;" x="251.860265" xlink:href="#m6152d23a56" y="117.029115"/>
     <use style="fill:#ffffff;stroke:#000000;" x="275.564641" xlink:href="#m6152d23a56" y="80.394843"/>
     <use style="fill:#ffffff;stroke:#000000;" x="265.35525" xlink:href="#m6152d23a56" y="104.953707"/>
     <use style="fill:#ffffff;stroke:#000000;" x="310.95393" xlink:href="#m6152d23a56" y="58.519622"/>
     <use style="fill:#ffffff;stroke:#000000;" x="308.452303" xlink:href="#m6152d23a56" y="107.123294"/>
     <use style="fill:#ffffff;stroke:#000000;" x="289.982799" xlink:href="#m6152d23a56" y="89.487896"/>
     <use style="fill:#ffffff;stroke:#000000;" x="240.882329" xlink:href="#m6152d23a56" y="118.8584"/>
     <use style="fill:#ffffff;stroke:#000000;" x="221.378651" xlink:href="#m6152d23a56" y="100.511242"/>
     <use style="fill:#ffffff;stroke:#000000;" x="217.244993" xlink:href="#m6152d23a56" y="121.367335"/>
     <use style="fill:#ffffff;stroke:#000000;" x="229.034082" xlink:href="#m6152d23a56" y="142.068892"/>
     <use style="fill:#ffffff;stroke:#000000;" x="282.90679" xlink:href="#m6152d23a56" y="117.22577"/>
     <use style="fill:#ffffff;stroke:#000000;" x="278.266702" xlink:href="#m6152d23a56" y="68.175193"/>
     <use style="fill:#ffffff;stroke:#000000;" x="346.908865" xlink:href="#m6152d23a56" y="92.919834"/>
     <use style="fill:#ffffff;stroke:#000000;" x="254.612679" xlink:href="#m6152d23a56" y="127.698462"/>
     <use style="fill:#ffffff;stroke:#000000;" x="258.250544" xlink:href="#m6152d23a56" y="115.404622"/>
     <use style="fill:#ffffff;stroke:#000000;" x="263.622231" xlink:href="#m6152d23a56" y="98.99883"/>
     <use style="fill:#ffffff;stroke:#000000;" x="334.587631" xlink:href="#m6152d23a56" y="44.443636"/>
     <use style="fill:#ffffff;stroke:#000000;" x="303.122243" xlink:href="#m6152d23a56" y="113.695681"/>
     <use style="fill:#ffffff;stroke:#000000;" x="270.730691" xlink:href="#m6152d23a56" y="98.466293"/>
     <use style="fill:#ffffff;stroke:#000000;" x="200.716828" xlink:href="#m6152d23a56" y="137.991849"/>
     <use style="fill:#ffffff;stroke:#000000;" x="252.537163" xlink:href="#m6152d23a56" y="139.102056"/>
     <use style="fill:#ffffff;stroke:#000000;" x="262.813684" xlink:href="#m6152d23a56" y="109.600286"/>
     <use style="fill:#ffffff;stroke:#000000;" x="315.449277" xlink:href="#m6152d23a56" y="73.734736"/>
     <use style="fill:#ffffff;stroke:#000000;" x="228.049626" xlink:href="#m6152d23a56" y="110.740683"/>
     <use style="fill:#ffffff;stroke:#000000;" x="225.037156" xlink:href="#m6152d23a56" y="111.160405"/>
     <use style="fill:#ffffff;stroke:#000000;" x="311.953435" xlink:href="#m6152d23a56" y="94.486397"/>
     <use style="fill:#ffffff;stroke:#000000;" x="226.34714" xlink:href="#m6152d23a56" y="129.53178"/>
     <use style="fill:#ffffff;stroke:#000000;" x="373.581818" xlink:href="#m6152d23a56" y="55.198346"/>
     <use style="fill:#ffffff;stroke:#000000;" x="302.882984" xlink:href="#m6152d23a56" y="92.099979"/>
     <use style="fill:#ffffff;stroke:#000000;" x="283.036994" xlink:href="#m6152d23a56" y="117.03112"/>
     <use style="fill:#ffffff;stroke:#000000;" x="214.586829" xlink:href="#m6152d23a56" y="107.43849"/>
     <use style="fill:#ffffff;stroke:#000000;" x="313.131503" xlink:href="#m6152d23a56" y="82.160228"/>
     <use style="fill:#ffffff;stroke:#000000;" x="280.731667" xlink:href="#m6152d23a56" y="87.241601"/>
     <use style="fill:#ffffff;stroke:#000000;" x="261.216698" xlink:href="#m6152d23a56" y="118.989107"/>
     <use style="fill:#ffffff;stroke:#000000;" x="324.838028" xlink:href="#m6152d23a56" y="96.669401"/>
     <use style="fill:#ffffff;stroke:#000000;" x="271.055612" xlink:href="#m6152d23a56" y="126.256061"/>
     <use style="fill:#ffffff;stroke:#000000;" x="165.814944" xlink:href="#m6152d23a56" y="133.999953"/>
     <use style="fill:#ffffff;stroke:#000000;" x="300.691257" xlink:href="#m6152d23a56" y="103.806648"/>
     <use style="fill:#ffffff;stroke:#000000;" x="200.830355" xlink:href="#m6152d23a56" y="98.047189"/>
     <use style="fill:#ffffff;stroke:#000000;" x="301.967671" xlink:href="#m6152d23a56" y="97.814422"/>
     <use style="fill:#ffffff;stroke:#000000;" x="204.992822" xlink:href="#m6152d23a56" y="132.48334"/>
     <use style="fill:#ffffff;stroke:#000000;" x="300.26416" xlink:href="#m6152d23a56" y="121.383103"/>
     <use style="fill:#ffffff;stroke:#000000;" x="168.935421" xlink:href="#m6152d23a56" y="125.567821"/>
     <use style="fill:#ffffff;stroke:#000000;" x="226.221126" xlink:href="#m6152d23a56" y="137.948172"/>
     <use style="fill:#ffffff;stroke:#000000;" x="288.049916" xlink:href="#m6152d23a56" y="104.247522"/>
     <use style="fill:#ffffff;stroke:#000000;" x="260.850332" xlink:href="#m6152d23a56" y="93.006909"/>
     <use style="fill:#ffffff;stroke:#000000;" x="192.953361" xlink:href="#m6152d23a56" y="132.879625"/>
     <use style="fill:#ffffff;stroke:#000000;" x="240.139498" xlink:href="#m6152d23a56" y="123.562597"/>
     <use style="fill:#ffffff;stroke:#000000;" x="224.207152" xlink:href="#m6152d23a56" y="95.135311"/>
     <use style="fill:#ffffff;stroke:#000000;" x="253.110595" xlink:href="#m6152d23a56" y="120.226722"/>
     <use style="fill:#ffffff;stroke:#000000;" x="358.892636" xlink:href="#m6152d23a56" y="97.193431"/>
     <use style="fill:#ffffff;stroke:#000000;" x="309.138875" xlink:href="#m6152d23a56" y="79.043856"/>
     <use style="fill:#ffffff;stroke:#000000;" x="290.33575" xlink:href="#m6152d23a56" y="108.732782"/>
     <use style="fill:#ffffff;stroke:#000000;" x="263.089695" xlink:href="#m6152d23a56" y="113.874186"/>
     <use style="fill:#ffffff;stroke:#000000;" x="226.973858" xlink:href="#m6152d23a56" y="116.034176"/>
     <use style="fill:#ffffff;stroke:#000000;" x="353.45587" xlink:href="#m6152d23a56" y="88.91069"/>
     <use style="fill:#ffffff;stroke:#000000;" x="277.230666" xlink:href="#m6152d23a56" y="130.709078"/>
     <use style="fill:#ffffff;stroke:#000000;" x="258.286039" xlink:href="#m6152d23a56" y="105.219203"/>
     <use style="fill:#ffffff;stroke:#000000;" x="174.025209" xlink:href="#m6152d23a56" y="153.002792"/>
     <use style="fill:#ffffff;stroke:#000000;" x="171.983334" xlink:href="#m6152d23a56" y="143.509262"/>
     <use style="fill:#ffffff;stroke:#000000;" x="294.261331" xlink:href="#m6152d23a56" y="55.426883"/>
     <use style="fill:#ffffff;stroke:#000000;" x="183.911037" xlink:href="#m6152d23a56" y="134.347361"/>
     <use style="fill:#ffffff;stroke:#000000;" x="212.00184" xlink:href="#m6152d23a56" y="146.298799"/>
     <use style="fill:#ffffff;stroke:#000000;" x="268.679105" xlink:href="#m6152d23a56" y="93.708183"/>
     <use style="fill:#ffffff;stroke:#000000;" x="300.136016" xlink:href="#m6152d23a56" y="76.659463"/>
     <use style="fill:#ffffff;stroke:#000000;" x="272.059206" xlink:href="#m6152d23a56" y="96.313911"/>
     <use style="fill:#ffffff;stroke:#000000;" x="289.415084" xlink:href="#m6152d23a56" y="108.140389"/>
     <use style="fill:#ffffff;stroke:#000000;" x="310.569988" xlink:href="#m6152d23a56" y="91.519606"/>
    </g>
   </g>
   <g id="PathCollection_2">
    <defs>
     <path d="M 0 3 
C 0.795609 3 1.55874 2.683901 2.12132 2.12132 
C 2.683901 1.55874 3 0.795609 3 0 
C 3 -0.795609 2.683901 -1.55874 2.12132 -2.12132 
C 1.55874 -2.683901 0.795609 -3 0 -3 
C -0.795609 -3 -1.55874 -2.683901 -2.12132 -2.12132 
C -2.683901 -1.55874 -3 -0.795609 -3 0 
C -3 0.795609 -2.683901 1.55874 -2.12132 2.12132 
C -1.55874 2.683901 -0.795609 3 0 3 
z
" id="m0c49dfef84" style="stroke:#000000;"/>
    </defs>
    <g clip-path="url(#p90728e9c17)">
     <use style="stroke:#000000;" x="121.816253" xlink:href="#m0c49dfef84" y="204.841102"/>
     <use style="stroke:#000000;" x="135.528416" xlink:href="#m0c49dfef84" y="210.436467"/>
     <use style="stroke:#000000;" x="177.94576" xlink:href="#m0c49dfef84" y="219.934926"/>
     <use style="stroke:#000000;" x="128.272192" xlink:href="#m0c49dfef84" y="187.185252"/>
     <use style="stroke:#000000;" x="137.044181" xlink:href="#m0c49dfef84" y="177.309929"/>
     <use style="stroke:#000000;" x="211.528446" xlink:href="#m0c49dfef84" y="175.345587"/>
     <use style="stroke:#000000;" x="207.774834" xlink:href="#m0c49dfef84" y="213.491444"/>
     <use style="stroke:#000000;" x="125.188051" xlink:href="#m0c49dfef84" y="172.787217"/>
     <use style="stroke:#000000;" x="178.137814" xlink:href="#m0c49dfef84" y="199.010308"/>
     <use style="stroke:#000000;" x="196.09619" xlink:href="#m0c49dfef84" y="200.099766"/>
     <use style="stroke:#000000;" x="141.828076" xlink:href="#m0c49dfef84" y="220.537606"/>
     <use style="stroke:#000000;" x="149.674818" xlink:href="#m0c49dfef84" y="195.04661"/>
     <use style="stroke:#000000;" x="203.723426" xlink:href="#m0c49dfef84" y="216.656961"/>
     <use style="stroke:#000000;" x="174.086884" xlink:href="#m0c49dfef84" y="198.134538"/>
     <use style="stroke:#000000;" x="331.913194" xlink:href="#m0c49dfef84" y="222.020325"/>
     <use style="stroke:#000000;" x="163.793621" xlink:href="#m0c49dfef84" y="212.939722"/>
     <use style="stroke:#000000;" x="207.529654" xlink:href="#m0c49dfef84" y="204.722496"/>
     <use style="stroke:#000000;" x="195.425538" xlink:href="#m0c49dfef84" y="225.365584"/>
     <use style="stroke:#000000;" x="140.684895" xlink:href="#m0c49dfef84" y="199.122699"/>
     <use style="stroke:#000000;" x="122.08797" xlink:href="#m0c49dfef84" y="170.314907"/>
     <use style="stroke:#000000;" x="176.063283" xlink:href="#m0c49dfef84" y="209.876853"/>
     <use style="stroke:#000000;" x="175.457175" xlink:href="#m0c49dfef84" y="200.744643"/>
     <use style="stroke:#000000;" x="208.196038" xlink:href="#m0c49dfef84" y="204.739991"/>
     <use style="stroke:#000000;" x="152.731553" xlink:href="#m0c49dfef84" y="185.331134"/>
     <use style="stroke:#000000;" x="250.235355" xlink:href="#m0c49dfef84" y="218.779439"/>
     <use style="stroke:#000000;" x="158.654758" xlink:href="#m0c49dfef84" y="194.678809"/>
     <use style="stroke:#000000;" x="137.669408" xlink:href="#m0c49dfef84" y="190.980504"/>
     <use style="stroke:#000000;" x="196.267642" xlink:href="#m0c49dfef84" y="187.789629"/>
     <use style="stroke:#000000;" x="185.566401" xlink:href="#m0c49dfef84" y="212.769001"/>
     <use style="stroke:#000000;" x="246.868776" xlink:href="#m0c49dfef84" y="232.38643"/>
     <use style="stroke:#000000;" x="187.535824" xlink:href="#m0c49dfef84" y="222.687062"/>
     <use style="stroke:#000000;" x="220.879531" xlink:href="#m0c49dfef84" y="214.916306"/>
     <use style="stroke:#000000;" x="158.093661" xlink:href="#m0c49dfef84" y="222.152761"/>
     <use style="stroke:#000000;" x="203.510559" xlink:href="#m0c49dfef84" y="220.846933"/>
     <use style="stroke:#000000;" x="222.389757" xlink:href="#m0c49dfef84" y="199.856294"/>
     <use style="stroke:#000000;" x="164.703856" xlink:href="#m0c49dfef84" y="189.650291"/>
     <use style="stroke:#000000;" x="69.218182" xlink:href="#m0c49dfef84" y="164.40576"/>
     <use style="stroke:#000000;" x="167.800142" xlink:href="#m0c49dfef84" y="185.365175"/>
     <use style="stroke:#000000;" x="185.116272" xlink:href="#m0c49dfef84" y="211.204795"/>
     <use style="stroke:#000000;" x="130.49464" xlink:href="#m0c49dfef84" y="192.926804"/>
     <use style="stroke:#000000;" x="133.801162" xlink:href="#m0c49dfef84" y="193.838425"/>
     <use style="stroke:#000000;" x="225.360593" xlink:href="#m0c49dfef84" y="229.462556"/>
     <use style="stroke:#000000;" x="141.282685" xlink:href="#m0c49dfef84" y="201.157765"/>
     <use style="stroke:#000000;" x="149.159837" xlink:href="#m0c49dfef84" y="185.081779"/>
     <use style="stroke:#000000;" x="228.093266" xlink:href="#m0c49dfef84" y="204.967992"/>
     <use style="stroke:#000000;" x="147.143409" xlink:href="#m0c49dfef84" y="190.322944"/>
     <use style="stroke:#000000;" x="206.509935" xlink:href="#m0c49dfef84" y="231.030654"/>
     <use style="stroke:#000000;" x="244.178003" xlink:href="#m0c49dfef84" y="236.58959"/>
     <use style="stroke:#000000;" x="229.754568" xlink:href="#m0c49dfef84" y="213.219001"/>
     <use style="stroke:#000000;" x="187.831597" xlink:href="#m0c49dfef84" y="242.116364"/>
    </g>
   </g>
   <g id="matplotlib.axis_1">
    <g id="xtick_1">
     <g id="line2d_1">
      <defs>
       <path d="M 0 0 
L 0 3.5 
" id="m7ea862973a" style="stroke:#000000;stroke-width:0.8;"/>
      </defs>
      <g>
       <use style="stroke:#000000;stroke-width:0.8;" x="103.9614" xlink:href="#m7ea862973a" y="252"/>
      </g>
     </g>
     <g id="text_1">
      <!-- −6 -->
      <g transform="translate(96.590306 266.598437)scale(0.1 -0.1)">
       <defs>
        <path d="M 10.59375 35.5 
L 73.1875 35.5 
L 73.1875 27.203125 
L 10.59375 27.203125 
z
" id="DejaVuSans-8722"/>
        <path d="M 33.015625 40.375 
Q 26.375 40.375 22.484375 35.828125 
Q 18.609375 31.296875 18.609375 23.390625 
Q 18.609375 15.53125 22.484375 10.953125 
Q 26.375 6.390625 33.015625 6.390625 
Q 39.65625 6.390625 43.53125 10.953125 
Q 47.40625 15.53125 47.40625 23.390625 
Q 47.40625 31.296875 43.53125 35.828125 
Q 39.65625 40.375 33.015625 40.375 
z
M 52.59375 71.296875 
L 52.59375 62.3125 
Q 48.875 64.0625 45.09375 64.984375 
Q 41.3125 65.921875 37.59375 65.921875 
Q 27.828125 65.921875 22.671875 59.328125 
Q 17.53125 52.734375 16.796875 39.40625 
Q 19.671875 43.65625 24.015625 45.921875 
Q 28.375 48.1875 33.59375 48.1875 
Q 44.578125 48.1875 50.953125 41.515625 
Q 57.328125 34.859375 57.328125 23.390625 
Q 57.328125 12.15625 50.6875 5.359375 
Q 44.046875 -1.421875 33.015625 -1.421875 
Q 20.359375 -1.421875 13.671875 8.265625 
Q 6.984375 17.96875 6.984375 36.375 
Q 6.984375 53.65625 15.1875 63.9375 
Q 23.390625 74.21875 37.203125 74.21875 
Q 40.921875 74.21875 44.703125 73.484375 
Q 48.484375 72.75 52.59375 71.296875 
z
" id="DejaVuSans-54"/>
       </defs>
       <use xlink:href="#DejaVuSans-8722"/>
       <use x="83.789062" xlink:href="#DejaVuSans-54"/>
      </g>
     </g>
    </g>
    <g id="xtick_2">
     <g id="line2d_2">
      <g>
       <use style="stroke:#000000;stroke-width:0.8;" x="170.128379" xlink:href="#m7ea862973a" y="252"/>
      </g>
     </g>
     <g id="text_2">
      <!-- −4 -->
      <g transform="translate(162.757285 266.598437)scale(0.1 -0.1)">
       <defs>
        <path d="M 37.796875 64.3125 
L 12.890625 25.390625 
L 37.796875 25.390625 
z
M 35.203125 72.90625 
L 47.609375 72.90625 
L 47.609375 25.390625 
L 58.015625 25.390625 
L 58.015625 17.1875 
L 47.609375 17.1875 
L 47.609375 0 
L 37.796875 0 
L 37.796875 17.1875 
L 4.890625 17.1875 
L 4.890625 26.703125 
z
" id="DejaVuSans-52"/>
       </defs>
       <use xlink:href="#DejaVuSans-8722"/>
       <use x="83.789062" xlink:href="#DejaVuSans-52"/>
      </g>
     </g>
    </g>
    <g id="xtick_3">
     <g id="line2d_3">
      <g>
       <use style="stroke:#000000;stroke-width:0.8;" x="236.295358" xlink:href="#m7ea862973a" y="252"/>
      </g>
     </g>
     <g id="text_3">
      <!-- −2 -->
      <g transform="translate(228.924264 266.598437)scale(0.1 -0.1)">
       <defs>
        <path d="M 19.1875 8.296875 
L 53.609375 8.296875 
L 53.609375 0 
L 7.328125 0 
L 7.328125 8.296875 
Q 12.9375 14.109375 22.625 23.890625 
Q 32.328125 33.6875 34.8125 36.53125 
Q 39.546875 41.84375 41.421875 45.53125 
Q 43.3125 49.21875 43.3125 52.78125 
Q 43.3125 58.59375 39.234375 62.25 
Q 35.15625 65.921875 28.609375 65.921875 
Q 23.96875 65.921875 18.8125 64.3125 
Q 13.671875 62.703125 7.8125 59.421875 
L 7.8125 69.390625 
Q 13.765625 71.78125 18.9375 73 
Q 24.125 74.21875 28.421875 74.21875 
Q 39.75 74.21875 46.484375 68.546875 
Q 53.21875 62.890625 53.21875 53.421875 
Q 53.21875 48.921875 51.53125 44.890625 
Q 49.859375 40.875 45.40625 35.40625 
Q 44.1875 33.984375 37.640625 27.21875 
Q 31.109375 20.453125 19.1875 8.296875 
z
" id="DejaVuSans-50"/>
       </defs>
       <use xlink:href="#DejaVuSans-8722"/>
       <use x="83.789062" xlink:href="#DejaVuSans-50"/>
      </g>
     </g>
    </g>
    <g id="xtick_4">
     <g id="line2d_4">
      <g>
       <use style="stroke:#000000;stroke-width:0.8;" x="302.462337" xlink:href="#m7ea862973a" y="252"/>
      </g>
     </g>
     <g id="text_4">
      <!-- 0 -->
      <g transform="translate(299.281087 266.598437)scale(0.1 -0.1)">
       <defs>
        <path d="M 31.78125 66.40625 
Q 24.171875 66.40625 20.328125 58.90625 
Q 16.5 51.421875 16.5 36.375 
Q 16.5 21.390625 20.328125 13.890625 
Q 24.171875 6.390625 31.78125 6.390625 
Q 39.453125 6.390625 43.28125 13.890625 
Q 47.125 21.390625 47.125 36.375 
Q 47.125 51.421875 43.28125 58.90625 
Q 39.453125 66.40625 31.78125 66.40625 
z
M 31.78125 74.21875 
Q 44.046875 74.21875 50.515625 64.515625 
Q 56.984375 54.828125 56.984375 36.375 
Q 56.984375 17.96875 50.515625 8.265625 
Q 44.046875 -1.421875 31.78125 -1.421875 
Q 19.53125 -1.421875 13.0625 8.265625 
Q 6.59375 17.96875 6.59375 36.375 
Q 6.59375 54.828125 13.0625 64.515625 
Q 19.53125 74.21875 31.78125 74.21875 
z
" id="DejaVuSans-48"/>
       </defs>
       <use xlink:href="#DejaVuSans-48"/>
      </g>
     </g>
    </g>
    <g id="xtick_5">
     <g id="line2d_5">
      <g>
       <use style="stroke:#000000;stroke-width:0.8;" x="368.629316" xlink:href="#m7ea862973a" y="252"/>
      </g>
     </g>
     <g id="text_5">
      <!-- 2 -->
      <g transform="translate(365.448066 266.598437)scale(0.1 -0.1)">
       <use xlink:href="#DejaVuSans-50"/>
      </g>
     </g>
    </g>
   </g>
   <g id="matplotlib.axis_2">
    <g id="ytick_1">
     <g id="line2d_6">
      <defs>
       <path d="M 0 0 
L -3.5 0 
" id="mc4b3a81e2a" style="stroke:#000000;stroke-width:0.8;"/>
      </defs>
      <g>
       <use style="stroke:#000000;stroke-width:0.8;" x="54" xlink:href="#mc4b3a81e2a" y="243.874178"/>
      </g>
     </g>
     <g id="text_6">
      <!-- −6 -->
      <g transform="translate(32.257812 247.673397)scale(0.1 -0.1)">
       <use xlink:href="#DejaVuSans-8722"/>
       <use x="83.789062" xlink:href="#DejaVuSans-54"/>
      </g>
     </g>
    </g>
    <g id="ytick_2">
     <g id="line2d_7">
      <g>
       <use style="stroke:#000000;stroke-width:0.8;" x="54" xlink:href="#mc4b3a81e2a" y="204.000993"/>
      </g>
     </g>
     <g id="text_7">
      <!-- −4 -->
      <g transform="translate(32.257812 207.800212)scale(0.1 -0.1)">
       <use xlink:href="#DejaVuSans-8722"/>
       <use x="83.789062" xlink:href="#DejaVuSans-52"/>
      </g>
     </g>
    </g>
    <g id="ytick_3">
     <g id="line2d_8">
      <g>
       <use style="stroke:#000000;stroke-width:0.8;" x="54" xlink:href="#mc4b3a81e2a" y="164.127809"/>
      </g>
     </g>
     <g id="text_8">
      <!-- −2 -->
      <g transform="translate(32.257812 167.927027)scale(0.1 -0.1)">
       <use xlink:href="#DejaVuSans-8722"/>
       <use x="83.789062" xlink:href="#DejaVuSans-50"/>
      </g>
     </g>
    </g>
    <g id="ytick_4">
     <g id="line2d_9">
      <g>
       <use style="stroke:#000000;stroke-width:0.8;" x="54" xlink:href="#mc4b3a81e2a" y="124.254624"/>
      </g>
     </g>
     <g id="text_9">
      <!-- 0 -->
      <g transform="translate(40.6375 128.053843)scale(0.1 -0.1)">
       <use xlink:href="#DejaVuSans-48"/>
      </g>
     </g>
    </g>
    <g id="ytick_5">
     <g id="line2d_10">
      <g>
       <use style="stroke:#000000;stroke-width:0.8;" x="54" xlink:href="#mc4b3a81e2a" y="84.381439"/>
      </g>
     </g>
     <g id="text_10">
      <!-- 2 -->
      <g transform="translate(40.6375 88.180658)scale(0.1 -0.1)">
       <use xlink:href="#DejaVuSans-50"/>
      </g>
     </g>
    </g>
    <g id="ytick_6">
     <g id="line2d_11">
      <g>
       <use style="stroke:#000000;stroke-width:0.8;" x="54" xlink:href="#mc4b3a81e2a" y="44.508255"/>
      </g>
     </g>
     <g id="text_11">
      <!-- 4 -->
      <g transform="translate(40.6375 48.307474)scale(0.1 -0.1)">
       <use xlink:href="#DejaVuSans-52"/>
      </g>
     </g>
    </g>
   </g>
   <g id="patch_3">
    <path d="M 54 252 
L 54 34.56 
" style="fill:none;stroke:#000000;stroke-linecap:square;stroke-linejoin:miter;stroke-width:0.8;"/>
   </g>
   <g id="patch_4">
    <path d="M 388.8 252 
L 388.8 34.56 
" style="fill:none;stroke:#000000;stroke-linecap:square;stroke-linejoin:miter;stroke-width:0.8;"/>
   </g>
   <g id="patch_5">
    <path d="M 54 252 
L 388.8 252 
" style="fill:none;stroke:#000000;stroke-linecap:square;stroke-linejoin:miter;stroke-width:0.8;"/>
   </g>
   <g id="patch_6">
    <path d="M 54 34.56 
L 388.8 34.56 
" style="fill:none;stroke:#000000;stroke-linecap:square;stroke-linejoin:miter;stroke-width:0.8;"/>
   </g>
  </g>
 </g>
 <defs>
  <clipPath id="p90728e9c17">
   <rect height="217.44" width="334.8" x="54" y="34.56"/>
  </clipPath>
 </defs>
</svg>
