<?xml version="1.0" encoding="utf-8" standalone="no"?>
<!DOCTYPE svg PUBLIC "-//W3C//DTD SVG 1.1//EN"
  "http://www.w3.org/Graphics/SVG/1.1/DTD/svg11.dtd">
<!-- Created with matplotlib (https://matplotlib.org/) -->
<svg height="288pt" version="1.1" viewBox="0 0 432 288" width="432pt" xmlns="http://www.w3.org/2000/svg" xmlns:xlink="http://www.w3.org/1999/xlink">
 <metadata>
  <rdf:RDF xmlns:cc="http://creativecommons.org/ns#" xmlns:dc="http://purl.org/dc/elements/1.1/" xmlns:rdf="http://www.w3.org/1999/02/22-rdf-syntax-ns#">
   <cc:Work>
    <dc:type rdf:resource="http://purl.org/dc/dcmitype/StillImage"/>
    <dc:date>2021-04-14T13:55:27.552378</dc:date>
    <dc:format>image/svg+xml</dc:format>
    <dc:creator>
     <cc:Agent>
      <dc:title>Matplotlib v3.3.2, https://matplotlib.org/</dc:title>
     </cc:Agent>
    </dc:creator>
   </cc:Work>
  </rdf:RDF>
 </metadata>
 <defs>
  <style type="text/css">*{stroke-linecap:butt;stroke-linejoin:round;}</style>
 </defs>
 <g id="figure_1">
  <g id="patch_1">
   <path d="M 0 288 
L 432 288 
L 432 0 
L 0 0 
z
" style="fill:none;"/>
  </g>
  <g id="axes_1">
   <g id="patch_2">
    <path d="M 54 252 
L 388.8 252 
L 388.8 34.56 
L 54 34.56 
z
" style="fill:#ffffff;"/>
   </g>
   <g id="PathCollection_1">
    <defs>
     <path d="M 0 3 
C 0.795609 3 1.55874 2.683901 2.12132 2.12132 
C 2.683901 1.55874 3 0.795609 3 -0 
C 3 -0.795609 2.683901 -1.55874 2.12132 -2.12132 
C 1.55874 -2.683901 0.795609 -3 0 -3 
C -0.795609 -3 -1.55874 -2.683901 -2.12132 -2.12132 
C -2.683901 -1.55874 -3 -0.795609 -3 0 
C -3 0.795609 -2.683901 1.55874 -2.12132 2.12132 
C -1.55874 2.683901 -0.795609 3 0 3 
z
" id="C0_0_60147d6fd9"/>
    </defs>
    <g clip-path="url(#p8330029a95)">
     <use style="fill:#ffffff;stroke:#000000;" x="277.480274" xlink:href="#C0_0_60147d6fd9" y="67.086238"/>
    </g>
    <g clip-path="url(#p8330029a95)">
     <use style="fill:#ffffff;stroke:#000000;" x="241.782217" xlink:href="#C0_0_60147d6fd9" y="86.820844"/>
    </g>
    <g clip-path="url(#p8330029a95)">
     <use style="fill:#ffffff;stroke:#000000;" x="205.664203" xlink:href="#C0_0_60147d6fd9" y="101.584441"/>
    </g>
    <g clip-path="url(#p8330029a95)">
     <use style="fill:#ffffff;stroke:#000000;" x="318.718663" xlink:href="#C0_0_60147d6fd9" y="62.651606"/>
    </g>
    <g clip-path="url(#p8330029a95)">
     <use style="fill:#ffffff;stroke:#000000;" x="228.005621" xlink:href="#C0_0_60147d6fd9" y="104.600384"/>
    </g>
    <g clip-path="url(#p8330029a95)">
     <use style="fill:#ffffff;stroke:#000000;" x="259.582369" xlink:href="#C0_0_60147d6fd9" y="96.897645"/>
    </g>
    <g clip-path="url(#p8330029a95)">
     <use style="fill:#ffffff;stroke:#000000;" x="277.011157" xlink:href="#C0_0_60147d6fd9" y="60.725025"/>
    </g>
    <g clip-path="url(#p8330029a95)">
     <use style="fill:#ffffff;stroke:#000000;" x="256.861611" xlink:href="#C0_0_60147d6fd9" y="118.998181"/>
    </g>
    <g clip-path="url(#p8330029a95)">
     <use style="fill:#ffffff;stroke:#000000;" x="271.735429" xlink:href="#C0_0_60147d6fd9" y="78.96326"/>
    </g>
    <g clip-path="url(#p8330029a95)">
     <use style="fill:#ffffff;stroke:#000000;" x="243.227847" xlink:href="#C0_0_60147d6fd9" y="85.100813"/>
    </g>
    <g clip-path="url(#p8330029a95)">
     <use style="fill:#ffffff;stroke:#000000;" x="240.005125" xlink:href="#C0_0_60147d6fd9" y="104.498564"/>
    </g>
    <g clip-path="url(#p8330029a95)">
     <use style="fill:#ffffff;stroke:#000000;" x="235.242151" xlink:href="#C0_0_60147d6fd9" y="94.218797"/>
    </g>
    <g clip-path="url(#p8330029a95)">
     <use style="stroke:#000000;" x="152.494379" xlink:href="#C0_0_60147d6fd9" y="130.825486"/>
    </g>
    <g clip-path="url(#p8330029a95)">
     <use style="fill:#ffffff;stroke:#000000;" x="165.195172" xlink:href="#C0_0_60147d6fd9" y="120.34526"/>
    </g>
    <g clip-path="url(#p8330029a95)">
     <use style="fill:#ffffff;stroke:#000000;" x="196.633406" xlink:href="#C0_0_60147d6fd9" y="89.281773"/>
    </g>
    <g clip-path="url(#p8330029a95)">
     <use style="fill:#ffffff;stroke:#000000;" x="320.178942" xlink:href="#C0_0_60147d6fd9" y="75.009625"/>
    </g>
    <g clip-path="url(#p8330029a95)">
     <use style="fill:#ffffff;stroke:#000000;" x="266.711712" xlink:href="#C0_0_60147d6fd9" y="67.65481"/>
    </g>
    <g clip-path="url(#p8330029a95)">
     <use style="fill:#ffffff;stroke:#000000;" x="295.426352" xlink:href="#C0_0_60147d6fd9" y="79.640943"/>
    </g>
    <g clip-path="url(#p8330029a95)">
     <use style="fill:#ffffff;stroke:#000000;" x="181.293204" xlink:href="#C0_0_60147d6fd9" y="108.300163"/>
    </g>
    <g clip-path="url(#p8330029a95)">
     <use style="fill:#ffffff;stroke:#000000;" x="253.248484" xlink:href="#C0_0_60147d6fd9" y="70.471456"/>
    </g>
    <g clip-path="url(#p8330029a95)">
     <use style="fill:#ffffff;stroke:#000000;" x="240.204375" xlink:href="#C0_0_60147d6fd9" y="86.271904"/>
    </g>
    <g clip-path="url(#p8330029a95)">
     <use style="fill:#ffffff;stroke:#000000;" x="244.640959" xlink:href="#C0_0_60147d6fd9" y="97.219669"/>
    </g>
    <g clip-path="url(#p8330029a95)">
     <use style="fill:#ffffff;stroke:#000000;" x="221.281639" xlink:href="#C0_0_60147d6fd9" y="102.285936"/>
    </g>
    <g clip-path="url(#p8330029a95)">
     <use style="fill:#ffffff;stroke:#000000;" x="218.198062" xlink:href="#C0_0_60147d6fd9" y="79.023089"/>
    </g>
    <g clip-path="url(#p8330029a95)">
     <use style="fill:#ffffff;stroke:#000000;" x="188.454229" xlink:href="#C0_0_60147d6fd9" y="108.369635"/>
    </g>
    <g clip-path="url(#p8330029a95)">
     <use style="fill:#ffffff;stroke:#000000;" x="190.595861" xlink:href="#C0_0_60147d6fd9" y="101.038425"/>
    </g>
    <g clip-path="url(#p8330029a95)">
     <use style="fill:#ffffff;stroke:#000000;" x="234.290157" xlink:href="#C0_0_60147d6fd9" y="89.568227"/>
    </g>
    <g clip-path="url(#p8330029a95)">
     <use style="fill:#ffffff;stroke:#000000;" x="236.71691" xlink:href="#C0_0_60147d6fd9" y="104.443751"/>
    </g>
    <g clip-path="url(#p8330029a95)">
     <use style="fill:#ffffff;stroke:#000000;" x="220.64455" xlink:href="#C0_0_60147d6fd9" y="71.449484"/>
    </g>
    <g clip-path="url(#p8330029a95)">
     <use style="fill:#ffffff;stroke:#000000;" x="247.741477" xlink:href="#C0_0_60147d6fd9" y="107.816448"/>
    </g>
    <g clip-path="url(#p8330029a95)">
     <use style="fill:#ffffff;stroke:#000000;" x="280.185297" xlink:href="#C0_0_60147d6fd9" y="84.165649"/>
    </g>
    <g clip-path="url(#p8330029a95)">
     <use style="fill:#ffffff;stroke:#000000;" x="244.52862" xlink:href="#C0_0_60147d6fd9" y="90.473234"/>
    </g>
    <g clip-path="url(#p8330029a95)">
     <use style="fill:#ffffff;stroke:#000000;" x="309.328219" xlink:href="#C0_0_60147d6fd9" y="79.391192"/>
    </g>
    <g clip-path="url(#p8330029a95)">
     <use style="fill:#ffffff;stroke:#000000;" x="227.718499" xlink:href="#C0_0_60147d6fd9" y="95.194392"/>
    </g>
    <g clip-path="url(#p8330029a95)">
     <use style="fill:#ffffff;stroke:#000000;" x="248.511378" xlink:href="#C0_0_60147d6fd9" y="84.672943"/>
    </g>
    <g clip-path="url(#p8330029a95)">
     <use style="fill:#ffffff;stroke:#000000;" x="266.451903" xlink:href="#C0_0_60147d6fd9" y="97.684252"/>
    </g>
    <g clip-path="url(#p8330029a95)">
     <use style="fill:#ffffff;stroke:#000000;" x="189.121672" xlink:href="#C0_0_60147d6fd9" y="120.714618"/>
    </g>
    <g clip-path="url(#p8330029a95)">
     <use style="fill:#ffffff;stroke:#000000;" x="167.588261" xlink:href="#C0_0_60147d6fd9" y="98.067792"/>
    </g>
    <g clip-path="url(#p8330029a95)">
     <use style="fill:#ffffff;stroke:#000000;" x="194.123272" xlink:href="#C0_0_60147d6fd9" y="126.741436"/>
    </g>
    <g clip-path="url(#p8330029a95)">
     <use style="fill:#ffffff;stroke:#000000;" x="226.935372" xlink:href="#C0_0_60147d6fd9" y="99.696057"/>
    </g>
    <g clip-path="url(#p8330029a95)">
     <use style="fill:#ffffff;stroke:#000000;" x="335.402589" xlink:href="#C0_0_60147d6fd9" y="61.160775"/>
    </g>
    <g clip-path="url(#p8330029a95)">
     <use style="fill:#ffffff;stroke:#000000;" x="231.38823" xlink:href="#C0_0_60147d6fd9" y="100.666331"/>
    </g>
    <g clip-path="url(#p8330029a95)">
     <use style="fill:#ffffff;stroke:#000000;" x="234.461125" xlink:href="#C0_0_60147d6fd9" y="93.592941"/>
    </g>
    <g clip-path="url(#p8330029a95)">
     <use style="fill:#ffffff;stroke:#000000;" x="280.838814" xlink:href="#C0_0_60147d6fd9" y="96.79596"/>
    </g>
    <g clip-path="url(#p8330029a95)">
     <use style="fill:#ffffff;stroke:#000000;" x="294.586387" xlink:href="#C0_0_60147d6fd9" y="74.688587"/>
    </g>
    <g clip-path="url(#p8330029a95)">
     <use style="fill:#ffffff;stroke:#000000;" x="239.239189" xlink:href="#C0_0_60147d6fd9" y="96.272485"/>
    </g>
    <g clip-path="url(#p8330029a95)">
     <use style="fill:#ffffff;stroke:#000000;" x="271.309037" xlink:href="#C0_0_60147d6fd9" y="101.437064"/>
    </g>
    <g clip-path="url(#p8330029a95)">
     <use style="fill:#ffffff;stroke:#000000;" x="294.199426" xlink:href="#C0_0_60147d6fd9" y="65.548882"/>
    </g>
    <g clip-path="url(#p8330029a95)">
     <use style="fill:#ffffff;stroke:#000000;" x="269.267495" xlink:href="#C0_0_60147d6fd9" y="88.422527"/>
    </g>
    <g clip-path="url(#p8330029a95)">
     <use style="fill:#ffffff;stroke:#000000;" x="222.99986" xlink:href="#C0_0_60147d6fd9" y="85.432206"/>
    </g>
    <g clip-path="url(#p8330029a95)">
     <use style="fill:#ffffff;stroke:#000000;" x="175.028899" xlink:href="#C0_0_60147d6fd9" y="129.888239"/>
    </g>
    <g clip-path="url(#p8330029a95)">
     <use style="fill:#ffffff;stroke:#000000;" x="286.093722" xlink:href="#C0_0_60147d6fd9" y="94.194699"/>
    </g>
    <g clip-path="url(#p8330029a95)">
     <use style="fill:#ffffff;stroke:#000000;" x="230.675623" xlink:href="#C0_0_60147d6fd9" y="74.726012"/>
    </g>
    <g clip-path="url(#p8330029a95)">
     <use style="fill:#ffffff;stroke:#000000;" x="168.221827" xlink:href="#C0_0_60147d6fd9" y="116.766575"/>
    </g>
    <g clip-path="url(#p8330029a95)">
     <use style="fill:#ffffff;stroke:#000000;" x="276.191042" xlink:href="#C0_0_60147d6fd9" y="77.973074"/>
    </g>
    <g clip-path="url(#p8330029a95)">
     <use style="fill:#ffffff;stroke:#000000;" x="239.847083" xlink:href="#C0_0_60147d6fd9" y="83.974601"/>
    </g>
    <g clip-path="url(#p8330029a95)">
     <use style="fill:#ffffff;stroke:#000000;" x="263.1591" xlink:href="#C0_0_60147d6fd9" y="99.804923"/>
    </g>
    <g clip-path="url(#p8330029a95)">
     <use style="fill:#ffffff;stroke:#000000;" x="309.209671" xlink:href="#C0_0_60147d6fd9" y="51.007184"/>
    </g>
    <g clip-path="url(#p8330029a95)">
     <use style="fill:#ffffff;stroke:#000000;" x="289.185754" xlink:href="#C0_0_60147d6fd9" y="83.892178"/>
    </g>
    <g clip-path="url(#p8330029a95)">
     <use style="fill:#ffffff;stroke:#000000;" x="256.457395" xlink:href="#C0_0_60147d6fd9" y="80.200881"/>
    </g>
    <g clip-path="url(#p8330029a95)">
     <use style="fill:#ffffff;stroke:#000000;" x="309.558029" xlink:href="#C0_0_60147d6fd9" y="53.41726"/>
    </g>
    <g clip-path="url(#p8330029a95)">
     <use style="fill:#ffffff;stroke:#000000;" x="252.956531" xlink:href="#C0_0_60147d6fd9" y="95.84111"/>
    </g>
    <g clip-path="url(#p8330029a95)">
     <use style="fill:#ffffff;stroke:#000000;" x="228.489128" xlink:href="#C0_0_60147d6fd9" y="102.092031"/>
    </g>
    <g clip-path="url(#p8330029a95)">
     <use style="fill:#ffffff;stroke:#000000;" x="304.918023" xlink:href="#C0_0_60147d6fd9" y="54.166038"/>
    </g>
    <g clip-path="url(#p8330029a95)">
     <use style="fill:#ffffff;stroke:#000000;" x="216.944194" xlink:href="#C0_0_60147d6fd9" y="112.028093"/>
    </g>
    <g clip-path="url(#p8330029a95)">
     <use style="fill:#ffffff;stroke:#000000;" x="153.708091" xlink:href="#C0_0_60147d6fd9" y="122.043982"/>
    </g>
    <g clip-path="url(#p8330029a95)">
     <use style="fill:#ffffff;stroke:#000000;" x="200.473751" xlink:href="#C0_0_60147d6fd9" y="91.989521"/>
    </g>
    <g clip-path="url(#p8330029a95)">
     <use style="fill:#ffffff;stroke:#000000;" x="324.951466" xlink:href="#C0_0_60147d6fd9" y="44.443636"/>
    </g>
    <g clip-path="url(#p8330029a95)">
     <use style="fill:#ffffff;stroke:#000000;" x="300.33031" xlink:href="#C0_0_60147d6fd9" y="48.631417"/>
    </g>
    <g clip-path="url(#p8330029a95)">
     <use style="fill:#ffffff;stroke:#000000;" x="198.496599" xlink:href="#C0_0_60147d6fd9" y="101.180864"/>
    </g>
    <g clip-path="url(#p8330029a95)">
     <use style="fill:#ffffff;stroke:#000000;" x="303.832081" xlink:href="#C0_0_60147d6fd9" y="70.493958"/>
    </g>
    <g clip-path="url(#p8330029a95)">
     <use style="fill:#ffffff;stroke:#000000;" x="175.843819" xlink:href="#C0_0_60147d6fd9" y="122.676294"/>
    </g>
    <g clip-path="url(#p8330029a95)">
     <use style="fill:#ffffff;stroke:#000000;" x="319.995466" xlink:href="#C0_0_60147d6fd9" y="92.361891"/>
    </g>
    <g clip-path="url(#p8330029a95)">
     <use style="fill:#ffffff;stroke:#000000;" x="240.644527" xlink:href="#C0_0_60147d6fd9" y="104.727415"/>
    </g>
    <g clip-path="url(#p8330029a95)">
     <use style="fill:#ffffff;stroke:#000000;" x="210.604196" xlink:href="#C0_0_60147d6fd9" y="98.642703"/>
    </g>
    <g clip-path="url(#p8330029a95)">
     <use style="fill:#ffffff;stroke:#000000;" x="276.773821" xlink:href="#C0_0_60147d6fd9" y="100.380859"/>
    </g>
    <g clip-path="url(#p8330029a95)">
     <use style="fill:#ffffff;stroke:#000000;" x="309.851379" xlink:href="#C0_0_60147d6fd9" y="67.783298"/>
    </g>
    <g clip-path="url(#p8330029a95)">
     <use style="fill:#ffffff;stroke:#000000;" x="261.503292" xlink:href="#C0_0_60147d6fd9" y="60.475678"/>
    </g>
    <g clip-path="url(#p8330029a95)">
     <use style="fill:#ffffff;stroke:#000000;" x="273.744472" xlink:href="#C0_0_60147d6fd9" y="94.763775"/>
    </g>
    <g clip-path="url(#p8330029a95)">
     <use style="fill:#ffffff;stroke:#000000;" x="228.464628" xlink:href="#C0_0_60147d6fd9" y="137.296484"/>
    </g>
    <g clip-path="url(#p8330029a95)">
     <use style="fill:#ffffff;stroke:#000000;" x="255.479211" xlink:href="#C0_0_60147d6fd9" y="92.947908"/>
    </g>
    <g clip-path="url(#p8330029a95)">
     <use style="fill:#ffffff;stroke:#000000;" x="298.470434" xlink:href="#C0_0_60147d6fd9" y="54.671919"/>
    </g>
    <g clip-path="url(#p8330029a95)">
     <use style="fill:#ffffff;stroke:#000000;" x="273.563017" xlink:href="#C0_0_60147d6fd9" y="96.840275"/>
    </g>
    <g clip-path="url(#p8330029a95)">
     <use style="fill:#ffffff;stroke:#000000;" x="206.501317" xlink:href="#C0_0_60147d6fd9" y="127.905028"/>
    </g>
    <g clip-path="url(#p8330029a95)">
     <use style="fill:#ffffff;stroke:#000000;" x="219.41952" xlink:href="#C0_0_60147d6fd9" y="112.83214"/>
    </g>
    <g clip-path="url(#p8330029a95)">
     <use style="fill:#ffffff;stroke:#000000;" x="269.814763" xlink:href="#C0_0_60147d6fd9" y="107.869588"/>
    </g>
    <g clip-path="url(#p8330029a95)">
     <use style="fill:#ffffff;stroke:#000000;" x="262.711927" xlink:href="#C0_0_60147d6fd9" y="106.910425"/>
    </g>
    <g clip-path="url(#p8330029a95)">
     <use style="fill:#ffffff;stroke:#000000;" x="250.772632" xlink:href="#C0_0_60147d6fd9" y="100.758992"/>
    </g>
    <g clip-path="url(#p8330029a95)">
     <use style="fill:#ffffff;stroke:#000000;" x="205.157507" xlink:href="#C0_0_60147d6fd9" y="87.834629"/>
    </g>
    <g clip-path="url(#p8330029a95)">
     <use style="fill:#ffffff;stroke:#000000;" x="272.549628" xlink:href="#C0_0_60147d6fd9" y="72.22982"/>
    </g>
    <g clip-path="url(#p8330029a95)">
     <use style="fill:#ffffff;stroke:#000000;" x="215.891249" xlink:href="#C0_0_60147d6fd9" y="86.368804"/>
    </g>
    <g clip-path="url(#p8330029a95)">
     <use style="fill:#ffffff;stroke:#000000;" x="314.683712" xlink:href="#C0_0_60147d6fd9" y="57.214321"/>
    </g>
    <g clip-path="url(#p8330029a95)">
     <use style="fill:#ffffff;stroke:#000000;" x="244.189241" xlink:href="#C0_0_60147d6fd9" y="101.284579"/>
    </g>
    <g clip-path="url(#p8330029a95)">
     <use style="fill:#ffffff;stroke:#000000;" x="289.333909" xlink:href="#C0_0_60147d6fd9" y="83.479038"/>
    </g>
    <g clip-path="url(#p8330029a95)">
     <use style="fill:#ffffff;stroke:#000000;" x="260.61572" xlink:href="#C0_0_60147d6fd9" y="80.273042"/>
    </g>
    <g clip-path="url(#p8330029a95)">
     <use style="fill:#ffffff;stroke:#000000;" x="228.850197" xlink:href="#C0_0_60147d6fd9" y="79.748089"/>
    </g>
    <g clip-path="url(#p8330029a95)">
     <use style="fill:#ffffff;stroke:#000000;" x="269.807226" xlink:href="#C0_0_60147d6fd9" y="73.251047"/>
    </g>
    <g clip-path="url(#p8330029a95)">
     <use style="fill:#ffffff;stroke:#000000;" x="373.581818" xlink:href="#C0_0_60147d6fd9" y="58.760412"/>
    </g>
    <g clip-path="url(#p8330029a95)">
     <use style="fill:#ffffff;stroke:#000000;" x="195.908214" xlink:href="#C0_0_60147d6fd9" y="111.38769"/>
    </g>
    <g clip-path="url(#p8330029a95)">
     <use style="fill:#ffffff;stroke:#000000;" x="254.156291" xlink:href="#C0_0_60147d6fd9" y="97.704385"/>
    </g>
    <g clip-path="url(#p8330029a95)">
     <use style="stroke:#000000;" x="193.818976" xlink:href="#C0_0_60147d6fd9" y="203.537544"/>
    </g>
    <g clip-path="url(#p8330029a95)">
     <use style="stroke:#000000;" x="228.357078" xlink:href="#C0_0_60147d6fd9" y="242.116364"/>
    </g>
    <g clip-path="url(#p8330029a95)">
     <use style="stroke:#000000;" x="104.254733" xlink:href="#C0_0_60147d6fd9" y="198.843652"/>
    </g>
    <g clip-path="url(#p8330029a95)">
     <use style="stroke:#000000;" x="170.276228" xlink:href="#C0_0_60147d6fd9" y="197.580748"/>
    </g>
    <g clip-path="url(#p8330029a95)">
     <use style="stroke:#000000;" x="108.308268" xlink:href="#C0_0_60147d6fd9" y="164.996723"/>
    </g>
    <g clip-path="url(#p8330029a95)">
     <use style="stroke:#000000;" x="245.024041" xlink:href="#C0_0_60147d6fd9" y="237.509062"/>
    </g>
    <g clip-path="url(#p8330029a95)">
     <use style="stroke:#000000;" x="151.542151" xlink:href="#C0_0_60147d6fd9" y="211.903999"/>
    </g>
    <g clip-path="url(#p8330029a95)">
     <use style="stroke:#000000;" x="214.924044" xlink:href="#C0_0_60147d6fd9" y="201.549079"/>
    </g>
    <g clip-path="url(#p8330029a95)">
     <use style="stroke:#000000;" x="169.224733" xlink:href="#C0_0_60147d6fd9" y="219.432327"/>
    </g>
    <g clip-path="url(#p8330029a95)">
     <use style="stroke:#000000;" x="101.499233" xlink:href="#C0_0_60147d6fd9" y="198.897234"/>
    </g>
    <g clip-path="url(#p8330029a95)">
     <use style="stroke:#000000;" x="211.660546" xlink:href="#C0_0_60147d6fd9" y="221.827355"/>
    </g>
    <g clip-path="url(#p8330029a95)">
     <use style="stroke:#000000;" x="92.562385" xlink:href="#C0_0_60147d6fd9" y="192.091215"/>
    </g>
    <g clip-path="url(#p8330029a95)">
     <use style="stroke:#000000;" x="147.984719" xlink:href="#C0_0_60147d6fd9" y="214.866914"/>
    </g>
    <g clip-path="url(#p8330029a95)">
     <use style="stroke:#000000;" x="98.528344" xlink:href="#C0_0_60147d6fd9" y="180.217633"/>
    </g>
    <g clip-path="url(#p8330029a95)">
     <use style="stroke:#000000;" x="166.404248" xlink:href="#C0_0_60147d6fd9" y="197.102409"/>
    </g>
    <g clip-path="url(#p8330029a95)">
     <use style="stroke:#000000;" x="113.814588" xlink:href="#C0_0_60147d6fd9" y="215.502682"/>
    </g>
    <g clip-path="url(#p8330029a95)">
     <use style="stroke:#000000;" x="252.965592" xlink:href="#C0_0_60147d6fd9" y="226.335665"/>
    </g>
    <g clip-path="url(#p8330029a95)">
     <use style="stroke:#000000;" x="69.218182" xlink:href="#C0_0_60147d6fd9" y="164.920064"/>
    </g>
    <g clip-path="url(#p8330029a95)">
     <use style="stroke:#000000;" x="147.911457" xlink:href="#C0_0_60147d6fd9" y="200.077099"/>
    </g>
    <g clip-path="url(#p8330029a95)">
     <use style="stroke:#000000;" x="298.278532" xlink:href="#C0_0_60147d6fd9" y="241.01583"/>
    </g>
    <g clip-path="url(#p8330029a95)">
     <use style="stroke:#000000;" x="159.047843" xlink:href="#C0_0_60147d6fd9" y="203.269321"/>
    </g>
    <g clip-path="url(#p8330029a95)">
     <use style="stroke:#000000;" x="203.767708" xlink:href="#C0_0_60147d6fd9" y="198.878373"/>
    </g>
    <g clip-path="url(#p8330029a95)">
     <use style="stroke:#000000;" x="151.786382" xlink:href="#C0_0_60147d6fd9" y="185.976791"/>
    </g>
    <g clip-path="url(#p8330029a95)">
     <use style="stroke:#000000;" x="123.428358" xlink:href="#C0_0_60147d6fd9" y="202.712455"/>
    </g>
    <g clip-path="url(#p8330029a95)">
     <use style="stroke:#000000;" x="106.542426" xlink:href="#C0_0_60147d6fd9" y="209.568102"/>
    </g>
    <g clip-path="url(#p8330029a95)">
     <use style="stroke:#000000;" x="186.465451" xlink:href="#C0_0_60147d6fd9" y="196.126419"/>
    </g>
    <g clip-path="url(#p8330029a95)">
     <use style="stroke:#000000;" x="187.72657" xlink:href="#C0_0_60147d6fd9" y="192.098924"/>
    </g>
    <g clip-path="url(#p8330029a95)">
     <use style="stroke:#000000;" x="94.875422" xlink:href="#C0_0_60147d6fd9" y="193.557071"/>
    </g>
    <g clip-path="url(#p8330029a95)">
     <use style="stroke:#000000;" x="121.647329" xlink:href="#C0_0_60147d6fd9" y="199.069321"/>
    </g>
    <g clip-path="url(#p8330029a95)">
     <use style="stroke:#000000;" x="140.620394" xlink:href="#C0_0_60147d6fd9" y="201.568314"/>
    </g>
    <g clip-path="url(#p8330029a95)">
     <use style="stroke:#000000;" x="134.728356" xlink:href="#C0_0_60147d6fd9" y="181.790822"/>
    </g>
    <g clip-path="url(#p8330029a95)">
     <use style="stroke:#000000;" x="166.112135" xlink:href="#C0_0_60147d6fd9" y="205.794755"/>
    </g>
    <g clip-path="url(#p8330029a95)">
     <use style="stroke:#000000;" x="164.026946" xlink:href="#C0_0_60147d6fd9" y="205.187993"/>
    </g>
    <g clip-path="url(#p8330029a95)">
     <use style="stroke:#000000;" x="124.211352" xlink:href="#C0_0_60147d6fd9" y="181.974035"/>
    </g>
    <g clip-path="url(#p8330029a95)">
     <use style="stroke:#000000;" x="243.897323" xlink:href="#C0_0_60147d6fd9" y="209.387708"/>
    </g>
    <g clip-path="url(#p8330029a95)">
     <use style="stroke:#000000;" x="125.569896" xlink:href="#C0_0_60147d6fd9" y="179.346992"/>
    </g>
    <g clip-path="url(#p8330029a95)">
     <use style="stroke:#000000;" x="280.698867" xlink:href="#C0_0_60147d6fd9" y="234.189038"/>
    </g>
    <g clip-path="url(#p8330029a95)">
     <use style="stroke:#000000;" x="268.666115" xlink:href="#C0_0_60147d6fd9" y="239.899776"/>
    </g>
    <g clip-path="url(#p8330029a95)">
     <use style="stroke:#000000;" x="142.764646" xlink:href="#C0_0_60147d6fd9" y="216.978936"/>
    </g>
    <g clip-path="url(#p8330029a95)">
     <use style="stroke:#000000;" x="198.508985" xlink:href="#C0_0_60147d6fd9" y="213.078674"/>
    </g>
    <g clip-path="url(#p8330029a95)">
     <use style="stroke:#000000;" x="89.018082" xlink:href="#C0_0_60147d6fd9" y="190.341753"/>
    </g>
    <g clip-path="url(#p8330029a95)">
     <use style="stroke:#000000;" x="156.961608" xlink:href="#C0_0_60147d6fd9" y="207.807631"/>
    </g>
    <g clip-path="url(#p8330029a95)">
     <use style="stroke:#000000;" x="165.48905" xlink:href="#C0_0_60147d6fd9" y="219.800792"/>
    </g>
    <g clip-path="url(#p8330029a95)">
     <use style="stroke:#000000;" x="204.9582" xlink:href="#C0_0_60147d6fd9" y="211.702792"/>
    </g>
    <g clip-path="url(#p8330029a95)">
     <use style="stroke:#000000;" x="159.03146" xlink:href="#C0_0_60147d6fd9" y="198.153404"/>
    </g>
    <g clip-path="url(#p8330029a95)">
     <use style="stroke:#000000;" x="111.743904" xlink:href="#C0_0_60147d6fd9" y="183.05942"/>
    </g>
    <g clip-path="url(#p8330029a95)">
     <use style="stroke:#000000;" x="130.881607" xlink:href="#C0_0_60147d6fd9" y="219.841021"/>
    </g>
    <g clip-path="url(#p8330029a95)">
     <use style="stroke:#000000;" x="168.781791" xlink:href="#C0_0_60147d6fd9" y="218.844677"/>
    </g>
    <g clip-path="url(#p8330029a95)">
     <use style="stroke:#000000;" x="176.90137" xlink:href="#C0_0_60147d6fd9" y="175.714582"/>
    </g>
    <g clip-path="url(#p8330029a95)">
     <use style="stroke:#000000;" x="207.305671" xlink:href="#C0_0_60147d6fd9" y="235.355518"/>
    </g>
   </g>
   <g id="PathCollection_2">
    <defs>
     <path d="M -3 3 
L 3 -3 
M -3 -3 
L 3 3 
" id="m3955b68ca8" style="stroke:#ff0000;stroke-width:5;"/>
    </defs>
    <g clip-path="url(#p8330029a95)">
     <use style="fill:#ff0000;stroke:#ff0000;stroke-width:5;" x="250.025942" xlink:href="#m3955b68ca8" y="90.093864"/>
    </g>
   </g>
   <g id="PathCollection_3">
    <defs>
     <path d="M -3 3 
L 3 -3 
M -3 -3 
L 3 3 
" id="m870cd92526" style="stroke:#0000ff;stroke-width:5;"/>
    </defs>
    <g clip-path="url(#p8330029a95)">
     <use style="fill:#0000ff;stroke:#0000ff;stroke-width:5;" x="163.435641" xlink:href="#m870cd92526" y="203.376951"/>
    </g>
   </g>
   <g id="matplotlib.axis_1">
    <g id="xtick_1">
     <g id="line2d_1">
      <defs>
       <path d="M 0 0 
L 0 3.5 
" id="mc41ebb24aa" style="stroke:#000000;stroke-width:0.8;"/>
      </defs>
      <g>
       <use style="stroke:#000000;stroke-width:0.8;" x="84.754681" xlink:href="#mc41ebb24aa" y="252"/>
      </g>
     </g>
     <g id="text_1">
      <!-- −6 -->
      <g transform="translate(77.383587 266.598437)scale(0.1 -0.1)">
       <defs>
        <path d="M 10.59375 35.5 
L 73.1875 35.5 
L 73.1875 27.203125 
L 10.59375 27.203125 
z
" id="DejaVuSans-8722"/>
        <path d="M 33.015625 40.375 
Q 26.375 40.375 22.484375 35.828125 
Q 18.609375 31.296875 18.609375 23.390625 
Q 18.609375 15.53125 22.484375 10.953125 
Q 26.375 6.390625 33.015625 6.390625 
Q 39.65625 6.390625 43.53125 10.953125 
Q 47.40625 15.53125 47.40625 23.390625 
Q 47.40625 31.296875 43.53125 35.828125 
Q 39.65625 40.375 33.015625 40.375 
z
M 52.59375 71.296875 
L 52.59375 62.3125 
Q 48.875 64.0625 45.09375 64.984375 
Q 41.3125 65.921875 37.59375 65.921875 
Q 27.828125 65.921875 22.671875 59.328125 
Q 17.53125 52.734375 16.796875 39.40625 
Q 19.671875 43.65625 24.015625 45.921875 
Q 28.375 48.1875 33.59375 48.1875 
Q 44.578125 48.1875 50.953125 41.515625 
Q 57.328125 34.859375 57.328125 23.390625 
Q 57.328125 12.15625 50.6875 5.359375 
Q 44.046875 -1.421875 33.015625 -1.421875 
Q 20.359375 -1.421875 13.671875 8.265625 
Q 6.984375 17.96875 6.984375 36.375 
Q 6.984375 53.65625 15.1875 63.9375 
Q 23.390625 74.21875 37.203125 74.21875 
Q 40.921875 74.21875 44.703125 73.484375 
Q 48.484375 72.75 52.59375 71.296875 
z
" id="DejaVuSans-54"/>
       </defs>
       <use xlink:href="#DejaVuSans-8722"/>
       <use x="83.789062" xlink:href="#DejaVuSans-54"/>
      </g>
     </g>
    </g>
    <g id="xtick_2">
     <g id="line2d_2">
      <g>
       <use style="stroke:#000000;stroke-width:0.8;" x="151.090042" xlink:href="#mc41ebb24aa" y="252"/>
      </g>
     </g>
     <g id="text_2">
      <!-- −4 -->
      <g transform="translate(143.718948 266.598437)scale(0.1 -0.1)">
       <defs>
        <path d="M 37.796875 64.3125 
L 12.890625 25.390625 
L 37.796875 25.390625 
z
M 35.203125 72.90625 
L 47.609375 72.90625 
L 47.609375 25.390625 
L 58.015625 25.390625 
L 58.015625 17.1875 
L 47.609375 17.1875 
L 47.609375 0 
L 37.796875 0 
L 37.796875 17.1875 
L 4.890625 17.1875 
L 4.890625 26.703125 
z
" id="DejaVuSans-52"/>
       </defs>
       <use xlink:href="#DejaVuSans-8722"/>
       <use x="83.789062" xlink:href="#DejaVuSans-52"/>
      </g>
     </g>
    </g>
    <g id="xtick_3">
     <g id="line2d_3">
      <g>
       <use style="stroke:#000000;stroke-width:0.8;" x="217.425403" xlink:href="#mc41ebb24aa" y="252"/>
      </g>
     </g>
     <g id="text_3">
      <!-- −2 -->
      <g transform="translate(210.05431 266.598437)scale(0.1 -0.1)">
       <defs>
        <path d="M 19.1875 8.296875 
L 53.609375 8.296875 
L 53.609375 0 
L 7.328125 0 
L 7.328125 8.296875 
Q 12.9375 14.109375 22.625 23.890625 
Q 32.328125 33.6875 34.8125 36.53125 
Q 39.546875 41.84375 41.421875 45.53125 
Q 43.3125 49.21875 43.3125 52.78125 
Q 43.3125 58.59375 39.234375 62.25 
Q 35.15625 65.921875 28.609375 65.921875 
Q 23.96875 65.921875 18.8125 64.3125 
Q 13.671875 62.703125 7.8125 59.421875 
L 7.8125 69.390625 
Q 13.765625 71.78125 18.9375 73 
Q 24.125 74.21875 28.421875 74.21875 
Q 39.75 74.21875 46.484375 68.546875 
Q 53.21875 62.890625 53.21875 53.421875 
Q 53.21875 48.921875 51.53125 44.890625 
Q 49.859375 40.875 45.40625 35.40625 
Q 44.1875 33.984375 37.640625 27.21875 
Q 31.109375 20.453125 19.1875 8.296875 
z
" id="DejaVuSans-50"/>
       </defs>
       <use xlink:href="#DejaVuSans-8722"/>
       <use x="83.789062" xlink:href="#DejaVuSans-50"/>
      </g>
     </g>
    </g>
    <g id="xtick_4">
     <g id="line2d_4">
      <g>
       <use style="stroke:#000000;stroke-width:0.8;" x="283.760765" xlink:href="#mc41ebb24aa" y="252"/>
      </g>
     </g>
     <g id="text_4">
      <!-- 0 -->
      <g transform="translate(280.579515 266.598437)scale(0.1 -0.1)">
       <defs>
        <path d="M 31.78125 66.40625 
Q 24.171875 66.40625 20.328125 58.90625 
Q 16.5 51.421875 16.5 36.375 
Q 16.5 21.390625 20.328125 13.890625 
Q 24.171875 6.390625 31.78125 6.390625 
Q 39.453125 6.390625 43.28125 13.890625 
Q 47.125 21.390625 47.125 36.375 
Q 47.125 51.421875 43.28125 58.90625 
Q 39.453125 66.40625 31.78125 66.40625 
z
M 31.78125 74.21875 
Q 44.046875 74.21875 50.515625 64.515625 
Q 56.984375 54.828125 56.984375 36.375 
Q 56.984375 17.96875 50.515625 8.265625 
Q 44.046875 -1.421875 31.78125 -1.421875 
Q 19.53125 -1.421875 13.0625 8.265625 
Q 6.59375 17.96875 6.59375 36.375 
Q 6.59375 54.828125 13.0625 64.515625 
Q 19.53125 74.21875 31.78125 74.21875 
z
" id="DejaVuSans-48"/>
       </defs>
       <use xlink:href="#DejaVuSans-48"/>
      </g>
     </g>
    </g>
    <g id="xtick_5">
     <g id="line2d_5">
      <g>
       <use style="stroke:#000000;stroke-width:0.8;" x="350.096126" xlink:href="#mc41ebb24aa" y="252"/>
      </g>
     </g>
     <g id="text_5">
      <!-- 2 -->
      <g transform="translate(346.914876 266.598437)scale(0.1 -0.1)">
       <use xlink:href="#DejaVuSans-50"/>
      </g>
     </g>
    </g>
    <g id="text_6">
     <!-- X -->
     <g transform="translate(217.975 280.276563)scale(0.1 -0.1)">
      <defs>
       <path d="M 6.296875 72.90625 
L 16.890625 72.90625 
L 35.015625 45.796875 
L 53.21875 72.90625 
L 63.8125 72.90625 
L 40.375 37.890625 
L 65.375 0 
L 54.78125 0 
L 34.28125 31 
L 13.625 0 
L 2.984375 0 
L 29 38.921875 
z
" id="DejaVuSans-88"/>
      </defs>
      <use xlink:href="#DejaVuSans-88"/>
     </g>
    </g>
   </g>
   <g id="matplotlib.axis_2">
    <g id="ytick_1">
     <g id="line2d_6">
      <defs>
       <path d="M 0 0 
L -3.5 0 
" id="m5b2632c8c8" style="stroke:#000000;stroke-width:0.8;"/>
      </defs>
      <g>
       <use style="stroke:#000000;stroke-width:0.8;" x="54" xlink:href="#m5b2632c8c8" y="244.210659"/>
      </g>
     </g>
     <g id="text_7">
      <!-- −6 -->
      <g transform="translate(32.257812 248.009878)scale(0.1 -0.1)">
       <use xlink:href="#DejaVuSans-8722"/>
       <use x="83.789062" xlink:href="#DejaVuSans-54"/>
      </g>
     </g>
    </g>
    <g id="ytick_2">
     <g id="line2d_7">
      <g>
       <use style="stroke:#000000;stroke-width:0.8;" x="54" xlink:href="#m5b2632c8c8" y="199.722227"/>
      </g>
     </g>
     <g id="text_8">
      <!-- −4 -->
      <g transform="translate(32.257812 203.521445)scale(0.1 -0.1)">
       <use xlink:href="#DejaVuSans-8722"/>
       <use x="83.789062" xlink:href="#DejaVuSans-52"/>
      </g>
     </g>
    </g>
    <g id="ytick_3">
     <g id="line2d_8">
      <g>
       <use style="stroke:#000000;stroke-width:0.8;" x="54" xlink:href="#m5b2632c8c8" y="155.233794"/>
      </g>
     </g>
     <g id="text_9">
      <!-- −2 -->
      <g transform="translate(32.257812 159.033013)scale(0.1 -0.1)">
       <use xlink:href="#DejaVuSans-8722"/>
       <use x="83.789062" xlink:href="#DejaVuSans-50"/>
      </g>
     </g>
    </g>
    <g id="ytick_4">
     <g id="line2d_9">
      <g>
       <use style="stroke:#000000;stroke-width:0.8;" x="54" xlink:href="#m5b2632c8c8" y="110.745362"/>
      </g>
     </g>
     <g id="text_10">
      <!-- 0 -->
      <g transform="translate(40.6375 114.544581)scale(0.1 -0.1)">
       <use xlink:href="#DejaVuSans-48"/>
      </g>
     </g>
    </g>
    <g id="ytick_5">
     <g id="line2d_10">
      <g>
       <use style="stroke:#000000;stroke-width:0.8;" x="54" xlink:href="#m5b2632c8c8" y="66.256929"/>
      </g>
     </g>
     <g id="text_11">
      <!-- 2 -->
      <g transform="translate(40.6375 70.056148)scale(0.1 -0.1)">
       <use xlink:href="#DejaVuSans-50"/>
      </g>
     </g>
    </g>
    <g id="text_12">
     <!-- Y -->
     <g transform="translate(26.178125 146.333906)rotate(-90)scale(0.1 -0.1)">
      <defs>
       <path d="M -0.203125 72.90625 
L 10.40625 72.90625 
L 30.609375 42.921875 
L 50.6875 72.90625 
L 61.28125 72.90625 
L 35.5 34.71875 
L 35.5 0 
L 25.59375 0 
L 25.59375 34.71875 
z
" id="DejaVuSans-89"/>
      </defs>
      <use xlink:href="#DejaVuSans-89"/>
     </g>
    </g>
   </g>
   <g id="patch_3">
    <path d="M 54 252 
L 54 34.56 
" style="fill:none;stroke:#000000;stroke-linecap:square;stroke-linejoin:miter;stroke-width:0.8;"/>
   </g>
   <g id="patch_4">
    <path d="M 388.8 252 
L 388.8 34.56 
" style="fill:none;stroke:#000000;stroke-linecap:square;stroke-linejoin:miter;stroke-width:0.8;"/>
   </g>
   <g id="patch_5">
    <path d="M 54 252 
L 388.8 252 
" style="fill:none;stroke:#000000;stroke-linecap:square;stroke-linejoin:miter;stroke-width:0.8;"/>
   </g>
   <g id="patch_6">
    <path d="M 54 34.56 
L 388.8 34.56 
" style="fill:none;stroke:#000000;stroke-linecap:square;stroke-linejoin:miter;stroke-width:0.8;"/>
   </g>
   <g id="legend_1">
    <g id="patch_7">
     <path d="M 61 71.91625 
L 222.923438 71.91625 
Q 224.923438 71.91625 224.923438 69.91625 
L 224.923438 41.56 
Q 224.923438 39.56 222.923438 39.56 
L 61 39.56 
Q 59 39.56 59 41.56 
L 59 69.91625 
Q 59 71.91625 61 71.91625 
z
" style="fill:#ffffff;opacity:0.8;stroke:#cccccc;stroke-linejoin:miter;"/>
    </g>
    <g id="PathCollection_4">
     <g>
      <use style="fill:#ff0000;stroke:#ff0000;stroke-width:5;" x="73" xlink:href="#m3955b68ca8" y="48.533437"/>
     </g>
    </g>
    <g id="text_13">
     <!-- Центр первого кластера -->
     <g transform="translate(91 51.158437)scale(0.1 -0.1)">
      <defs>
       <path d="M 65.375 0 
L 9.8125 0 
L 9.8125 72.90625 
L 19.671875 72.90625 
L 19.671875 8.296875 
L 55.515625 8.296875 
L 55.515625 72.90625 
L 65.375 72.90625 
L 65.375 8.296875 
L 73.6875 8.296875 
L 73.6875 -15.671875 
L 65.375 -15.671875 
z
" id="DejaVuSans-1062"/>
       <path d="M 56.203125 29.59375 
L 56.203125 25.203125 
L 14.890625 25.203125 
Q 15.484375 15.921875 20.484375 11.0625 
Q 25.484375 6.203125 34.421875 6.203125 
Q 39.59375 6.203125 44.453125 7.46875 
Q 49.3125 8.734375 54.109375 11.28125 
L 54.109375 2.78125 
Q 49.265625 0.734375 44.1875 -0.34375 
Q 39.109375 -1.421875 33.890625 -1.421875 
Q 20.796875 -1.421875 13.15625 6.1875 
Q 5.515625 13.8125 5.515625 26.8125 
Q 5.515625 40.234375 12.765625 48.109375 
Q 20.015625 56 32.328125 56 
Q 43.359375 56 49.78125 48.890625 
Q 56.203125 41.796875 56.203125 29.59375 
z
M 47.21875 32.234375 
Q 47.125 39.59375 43.09375 43.984375 
Q 39.0625 48.390625 32.421875 48.390625 
Q 24.90625 48.390625 20.390625 44.140625 
Q 15.875 39.890625 15.1875 32.171875 
z
" id="DejaVuSans-1077"/>
       <path d="M 9.078125 54.6875 
L 18.109375 54.6875 
L 18.109375 32.375 
L 47.265625 32.375 
L 47.265625 54.6875 
L 56.296875 54.6875 
L 56.296875 0 
L 47.265625 0 
L 47.265625 25.203125 
L 18.109375 25.203125 
L 18.109375 0 
L 9.078125 0 
z
" id="DejaVuSans-1085"/>
       <path d="M 2.9375 54.6875 
L 55.328125 54.6875 
L 55.328125 47.515625 
L 33.546875 47.515625 
L 33.546875 0 
L 24.703125 0 
L 24.703125 47.515625 
L 2.9375 47.515625 
z
" id="DejaVuSans-1090"/>
       <path d="M 18.109375 8.203125 
L 18.109375 -20.796875 
L 9.078125 -20.796875 
L 9.078125 54.6875 
L 18.109375 54.6875 
L 18.109375 46.390625 
Q 20.953125 51.265625 25.265625 53.625 
Q 29.59375 56 35.59375 56 
Q 45.5625 56 51.78125 48.09375 
Q 58.015625 40.1875 58.015625 27.296875 
Q 58.015625 14.40625 51.78125 6.484375 
Q 45.5625 -1.421875 35.59375 -1.421875 
Q 29.59375 -1.421875 25.265625 0.953125 
Q 20.953125 3.328125 18.109375 8.203125 
z
M 48.6875 27.296875 
Q 48.6875 37.203125 44.609375 42.84375 
Q 40.53125 48.484375 33.40625 48.484375 
Q 26.265625 48.484375 22.1875 42.84375 
Q 18.109375 37.203125 18.109375 27.296875 
Q 18.109375 17.390625 22.1875 11.75 
Q 26.265625 6.109375 33.40625 6.109375 
Q 40.53125 6.109375 44.609375 11.75 
Q 48.6875 17.390625 48.6875 27.296875 
z
" id="DejaVuSans-1088"/>
       <path id="DejaVuSans-32"/>
       <path d="M 56.296875 54.6875 
L 56.296875 0 
L 47.265625 0 
L 47.265625 47.515625 
L 18.109375 47.515625 
L 18.109375 0 
L 9.078125 0 
L 9.078125 54.6875 
z
" id="DejaVuSans-1087"/>
       <path d="M 18.0625 25.203125 
L 18.0625 7.171875 
L 30.859375 7.171875 
Q 37.015625 7.171875 40.234375 9.484375 
Q 43.453125 11.8125 43.453125 16.21875 
Q 43.453125 20.609375 40.234375 22.90625 
Q 37.015625 25.203125 30.859375 25.203125 
z
M 18.0625 47.515625 
L 18.0625 32.375 
L 29.890625 32.375 
Q 34.96875 32.375 38.1875 34.390625 
Q 41.40625 36.421875 41.40625 40.046875 
Q 41.40625 43.65625 38.1875 45.578125 
Q 34.96875 47.515625 29.890625 47.515625 
z
M 9.078125 54.6875 
L 30.46875 54.6875 
Q 40.09375 54.6875 45.265625 51.171875 
Q 50.4375 47.65625 50.4375 41.15625 
Q 50.4375 36.140625 47.796875 33.171875 
Q 45.171875 30.21875 39.984375 29.5 
Q 46.1875 28.328125 49.609375 24.609375 
Q 53.03125 20.90625 53.03125 15.328125 
Q 53.03125 8.015625 47.390625 4 
Q 41.75 0 31.296875 0 
L 9.078125 0 
z
" id="DejaVuSans-1074"/>
       <path d="M 30.609375 48.390625 
Q 23.390625 48.390625 19.1875 42.75 
Q 14.984375 37.109375 14.984375 27.296875 
Q 14.984375 17.484375 19.15625 11.84375 
Q 23.34375 6.203125 30.609375 6.203125 
Q 37.796875 6.203125 41.984375 11.859375 
Q 46.1875 17.53125 46.1875 27.296875 
Q 46.1875 37.015625 41.984375 42.703125 
Q 37.796875 48.390625 30.609375 48.390625 
z
M 30.609375 56 
Q 42.328125 56 49.015625 48.375 
Q 55.71875 40.765625 55.71875 27.296875 
Q 55.71875 13.875 49.015625 6.21875 
Q 42.328125 -1.421875 30.609375 -1.421875 
Q 18.84375 -1.421875 12.171875 6.21875 
Q 5.515625 13.875 5.515625 27.296875 
Q 5.515625 40.765625 12.171875 48.375 
Q 18.84375 56 30.609375 56 
z
" id="DejaVuSans-1086"/>
       <path d="M 9.078125 0 
L 9.078125 54.6875 
L 47.65625 54.6875 
L 47.65625 47.515625 
L 18.109375 47.515625 
L 18.109375 0 
z
" id="DejaVuSans-1075"/>
       <path d="M 9.078125 54.6875 
L 18.015625 54.6875 
L 18.015625 29 
L 43.359375 54.6875 
L 54.390625 54.6875 
L 33.5 33.546875 
L 57.078125 0 
L 47.015625 0 
L 27.640625 27.59375 
L 18.015625 17.828125 
L 18.015625 0 
L 9.078125 0 
z
" id="DejaVuSans-1082"/>
       <path d="M 3.71875 0 
L 3.71875 7.46875 
Q 12.59375 8.84375 15.328125 14.984375 
Q 18.65625 23.640625 18.65625 45.75 
L 18.65625 54.6875 
L 55.609375 54.6875 
L 55.609375 0 
L 46.625 0 
L 46.625 47.515625 
L 27.640625 47.515625 
L 27.640625 42.09375 
Q 27.640625 21 23.34375 11.53125 
Q 18.75 1.421875 3.71875 0 
z
" id="DejaVuSans-1083"/>
       <path d="M 34.28125 27.484375 
Q 23.390625 27.484375 19.1875 25 
Q 14.984375 22.515625 14.984375 16.5 
Q 14.984375 11.71875 18.140625 8.90625 
Q 21.296875 6.109375 26.703125 6.109375 
Q 34.1875 6.109375 38.703125 11.40625 
Q 43.21875 16.703125 43.21875 25.484375 
L 43.21875 27.484375 
z
M 52.203125 31.203125 
L 52.203125 0 
L 43.21875 0 
L 43.21875 8.296875 
Q 40.140625 3.328125 35.546875 0.953125 
Q 30.953125 -1.421875 24.3125 -1.421875 
Q 15.921875 -1.421875 10.953125 3.296875 
Q 6 8.015625 6 15.921875 
Q 6 25.140625 12.171875 29.828125 
Q 18.359375 34.515625 30.609375 34.515625 
L 43.21875 34.515625 
L 43.21875 35.40625 
Q 43.21875 41.609375 39.140625 45 
Q 35.0625 48.390625 27.6875 48.390625 
Q 23 48.390625 18.546875 47.265625 
Q 14.109375 46.140625 10.015625 43.890625 
L 10.015625 52.203125 
Q 14.9375 54.109375 19.578125 55.046875 
Q 24.21875 56 28.609375 56 
Q 40.484375 56 46.34375 49.84375 
Q 52.203125 43.703125 52.203125 31.203125 
z
" id="DejaVuSans-1072"/>
       <path d="M 48.78125 52.59375 
L 48.78125 44.1875 
Q 44.96875 46.296875 41.140625 47.34375 
Q 37.3125 48.390625 33.40625 48.390625 
Q 24.65625 48.390625 19.8125 42.84375 
Q 14.984375 37.3125 14.984375 27.296875 
Q 14.984375 17.28125 19.8125 11.734375 
Q 24.65625 6.203125 33.40625 6.203125 
Q 37.3125 6.203125 41.140625 7.25 
Q 44.96875 8.296875 48.78125 10.40625 
L 48.78125 2.09375 
Q 45.015625 0.34375 40.984375 -0.53125 
Q 36.96875 -1.421875 32.421875 -1.421875 
Q 20.0625 -1.421875 12.78125 6.34375 
Q 5.515625 14.109375 5.515625 27.296875 
Q 5.515625 40.671875 12.859375 48.328125 
Q 20.21875 56 33.015625 56 
Q 37.15625 56 41.109375 55.140625 
Q 45.0625 54.296875 48.78125 52.59375 
z
" id="DejaVuSans-1089"/>
      </defs>
      <use xlink:href="#DejaVuSans-1062"/>
      <use x="77.636719" xlink:href="#DejaVuSans-1077"/>
      <use x="139.160156" xlink:href="#DejaVuSans-1085"/>
      <use x="204.541016" xlink:href="#DejaVuSans-1090"/>
      <use x="262.792969" xlink:href="#DejaVuSans-1088"/>
      <use x="326.269531" xlink:href="#DejaVuSans-32"/>
      <use x="358.056641" xlink:href="#DejaVuSans-1087"/>
      <use x="423.4375" xlink:href="#DejaVuSans-1077"/>
      <use x="484.960938" xlink:href="#DejaVuSans-1088"/>
      <use x="548.4375" xlink:href="#DejaVuSans-1074"/>
      <use x="607.373047" xlink:href="#DejaVuSans-1086"/>
      <use x="668.554688" xlink:href="#DejaVuSans-1075"/>
      <use x="721.09375" xlink:href="#DejaVuSans-1086"/>
      <use x="782.275391" xlink:href="#DejaVuSans-32"/>
      <use x="814.0625" xlink:href="#DejaVuSans-1082"/>
      <use x="874.462891" xlink:href="#DejaVuSans-1083"/>
      <use x="938.378906" xlink:href="#DejaVuSans-1072"/>
      <use x="999.658203" xlink:href="#DejaVuSans-1089"/>
      <use x="1054.638672" xlink:href="#DejaVuSans-1090"/>
      <use x="1112.890625" xlink:href="#DejaVuSans-1077"/>
      <use x="1174.414062" xlink:href="#DejaVuSans-1088"/>
      <use x="1237.890625" xlink:href="#DejaVuSans-1072"/>
     </g>
    </g>
    <g id="PathCollection_5">
     <g>
      <use style="fill:#0000ff;stroke:#0000ff;stroke-width:5;" x="73" xlink:href="#m870cd92526" y="63.211562"/>
     </g>
    </g>
    <g id="text_14">
     <!-- Центр второго кластера -->
     <g transform="translate(91 65.836562)scale(0.1 -0.1)">
      <use xlink:href="#DejaVuSans-1062"/>
      <use x="77.636719" xlink:href="#DejaVuSans-1077"/>
      <use x="139.160156" xlink:href="#DejaVuSans-1085"/>
      <use x="204.541016" xlink:href="#DejaVuSans-1090"/>
      <use x="262.792969" xlink:href="#DejaVuSans-1088"/>
      <use x="326.269531" xlink:href="#DejaVuSans-32"/>
      <use x="358.056641" xlink:href="#DejaVuSans-1074"/>
      <use x="416.992188" xlink:href="#DejaVuSans-1090"/>
      <use x="475.244141" xlink:href="#DejaVuSans-1086"/>
      <use x="536.425781" xlink:href="#DejaVuSans-1088"/>
      <use x="599.902344" xlink:href="#DejaVuSans-1086"/>
      <use x="661.083984" xlink:href="#DejaVuSans-1075"/>
      <use x="713.623047" xlink:href="#DejaVuSans-1086"/>
      <use x="774.804688" xlink:href="#DejaVuSans-32"/>
      <use x="806.591797" xlink:href="#DejaVuSans-1082"/>
      <use x="866.992188" xlink:href="#DejaVuSans-1083"/>
      <use x="930.908203" xlink:href="#DejaVuSans-1072"/>
      <use x="992.1875" xlink:href="#DejaVuSans-1089"/>
      <use x="1047.167969" xlink:href="#DejaVuSans-1090"/>
      <use x="1105.419922" xlink:href="#DejaVuSans-1077"/>
      <use x="1166.943359" xlink:href="#DejaVuSans-1088"/>
      <use x="1230.419922" xlink:href="#DejaVuSans-1072"/>
     </g>
    </g>
   </g>
  </g>
 </g>
 <defs>
  <clipPath id="p8330029a95">
   <rect height="217.44" width="334.8" x="54" y="34.56"/>
  </clipPath>
 </defs>
</svg>
